<svg viewBox="0 0 272 52" fill="none" xmlns="http://www.w3.org/2000/svg">
<path fill-rule="evenodd" clip-rule="evenodd" d="M37.0001 23.5L33.902 33.0612L32.6641 32.6888L36.0487 22.25H49.4873V18.5H39.5681L37.4824 16H30.043V34.125C30.043 35.1587 30.9154 36 31.9874 36H48.856C49.7789 36 50.5813 35.3663 50.7628 34.4925L53.043 23.5H37.0001Z" fill="#95F450"/>
<path d="M127.725 22.5175C128.285 21.7802 128.924 21.2155 129.643 20.8235C130.371 20.4222 131.174 20.2215 132.051 20.2215C133.376 20.2215 134.445 20.5388 135.257 21.1735C136.069 21.8082 136.657 22.6995 137.021 23.8475C137.394 24.9862 137.581 26.3162 137.581 27.8375C137.581 29.3122 137.357 30.6235 136.909 31.7715C136.47 32.9195 135.822 33.8248 134.963 34.4875C134.104 35.1408 133.045 35.4675 131.785 35.4675C130.03 35.4675 128.658 34.8468 127.669 33.6055L127.501 35.1875H125.989V14.5375L127.725 14.2995V22.5175ZM131.407 33.9555C132.77 33.9555 133.81 33.4468 134.529 32.4295C135.257 31.4028 135.621 29.8628 135.621 27.8095C135.621 26.5028 135.476 25.3968 135.187 24.4915C134.907 23.5862 134.482 22.8955 133.913 22.4195C133.353 21.9435 132.648 21.7055 131.799 21.7055C130.884 21.7055 130.082 21.9808 129.391 22.5315C128.7 23.0728 128.145 23.6515 127.725 24.2675V31.8835C128.145 32.5088 128.677 33.0128 129.321 33.3955C129.974 33.7688 130.67 33.9555 131.407 33.9555ZM147.916 14.5375V31.8555C147.916 32.6208 148.159 33.1622 148.644 33.4795C149.139 33.7968 149.76 33.9555 150.506 33.9555C150.973 33.9555 151.412 33.9088 151.822 33.8155C152.242 33.7222 152.667 33.5915 153.096 33.4235L153.6 34.7675C153.236 34.9448 152.774 35.1035 152.214 35.2435C151.654 35.3928 151.029 35.4675 150.338 35.4675C149.181 35.4675 148.196 35.1548 147.384 34.5295C146.582 33.8948 146.18 33.0035 146.18 31.8555V16.0495H141.616V14.5375H147.916ZM164.943 20.2215C166.287 20.2215 167.407 20.5342 168.303 21.1595C169.199 21.7848 169.867 22.6668 170.305 23.8055C170.753 24.9442 170.977 26.2882 170.977 27.8375C170.977 29.2935 170.749 30.5955 170.291 31.7435C169.834 32.8915 169.153 33.8015 168.247 34.4735C167.351 35.1362 166.236 35.4675 164.901 35.4675C163.557 35.4675 162.433 35.1502 161.527 34.5155C160.631 33.8715 159.955 32.9802 159.497 31.8415C159.049 30.6935 158.825 29.3682 158.825 27.8655C158.825 26.3628 159.054 25.0375 159.511 23.8895C159.969 22.7415 160.65 21.8455 161.555 21.2015C162.47 20.5482 163.599 20.2215 164.943 20.2215ZM164.943 21.7475C163.562 21.7475 162.512 22.2468 161.793 23.2455C161.084 24.2442 160.729 25.7842 160.729 27.8655C160.729 29.9002 161.079 31.4215 161.779 32.4295C162.479 33.4282 163.52 33.9275 164.901 33.9275C166.283 33.9275 167.323 33.4282 168.023 32.4295C168.723 31.4215 169.073 29.8908 169.073 27.8375C169.073 25.7748 168.723 24.2442 168.023 23.2455C167.333 22.2468 166.306 21.7475 164.943 21.7475ZM187.976 19.1575L188.62 21.0615C187.958 21.2482 187.272 21.3602 186.562 21.3975C185.853 21.4348 185.097 21.4535 184.294 21.4535C185.125 21.8362 185.746 22.3448 186.156 22.9795C186.567 23.6048 186.772 24.3188 186.772 25.1215C186.772 26.0922 186.562 26.9602 186.142 27.7255C185.722 28.4815 185.116 29.0742 184.322 29.5035C183.538 29.9328 182.582 30.1475 181.452 30.1475C180.902 30.1475 180.454 30.1242 180.108 30.0775C179.763 30.0215 179.427 29.9375 179.1 29.8255C178.867 30.0028 178.666 30.2362 178.498 30.5255C178.34 30.8148 178.26 31.1182 178.26 31.4355C178.26 31.8182 178.41 32.1355 178.708 32.3875C179.016 32.6395 179.558 32.7655 180.332 32.7655H183.048C183.991 32.7655 184.845 32.9382 185.61 33.2835C186.385 33.6288 186.996 34.0955 187.444 34.6835C187.902 35.2715 188.13 35.9342 188.13 36.6715C188.13 38.0995 187.528 39.1822 186.324 39.9195C185.13 40.6662 183.473 41.0395 181.354 41.0395C179.889 41.0395 178.722 40.8855 177.854 40.5775C176.986 40.2788 176.361 39.8075 175.978 39.1635C175.605 38.5288 175.418 37.7075 175.418 36.6995H177.014C177.014 37.3155 177.131 37.8242 177.364 38.2255C177.607 38.6268 178.036 38.9255 178.652 39.1215C179.268 39.3268 180.15 39.4295 181.298 39.4295C182.428 39.4295 183.361 39.3315 184.098 39.1355C184.845 38.9488 185.405 38.6595 185.778 38.2675C186.152 37.8755 186.338 37.3808 186.338 36.7835C186.338 36.0088 185.979 35.4302 185.26 35.0475C184.542 34.6648 183.678 34.4735 182.67 34.4735H179.954C178.778 34.4735 177.91 34.1982 177.35 33.6475C176.79 33.0968 176.51 32.4668 176.51 31.7575C176.51 31.3095 176.641 30.8708 176.902 30.4415C177.173 30.0028 177.574 29.6062 178.106 29.2515C177.294 28.8222 176.688 28.2808 176.286 27.6275C175.885 26.9742 175.684 26.1762 175.684 25.2335C175.684 24.2722 175.922 23.4135 176.398 22.6575C176.874 21.9015 177.537 21.3042 178.386 20.8655C179.236 20.4268 180.22 20.2075 181.34 20.2075C182.619 20.1888 183.636 20.1422 184.392 20.0675C185.158 19.9835 185.802 19.8668 186.324 19.7175C186.856 19.5682 187.407 19.3815 187.976 19.1575ZM181.298 21.5795C179.973 21.5795 179.002 21.9295 178.386 22.6295C177.78 23.3295 177.476 24.2068 177.476 25.2615C177.476 26.3068 177.789 27.1842 178.414 27.8935C179.04 28.5935 180.029 28.9435 181.382 28.9435C182.512 28.9435 183.375 28.6168 183.972 27.9635C184.57 27.3102 184.868 26.4048 184.868 25.2475C184.868 24.0528 184.57 23.1428 183.972 22.5175C183.375 21.8922 182.484 21.5795 181.298 21.5795ZM196.197 33.1715C196.197 32.7515 196.295 32.3735 196.491 32.0375C196.687 31.6922 196.953 31.4215 197.289 31.2255C197.625 31.0295 198.008 30.9315 198.437 30.9315C198.885 30.9315 199.282 31.0295 199.627 31.2255C199.973 31.4215 200.243 31.6922 200.439 32.0375C200.635 32.3735 200.733 32.7515 200.733 33.1715C200.733 33.6008 200.635 33.9928 200.439 34.3475C200.243 34.6928 199.973 34.9682 199.627 35.1735C199.282 35.3695 198.885 35.4675 198.437 35.4675C198.008 35.4675 197.625 35.3695 197.289 35.1735C196.953 34.9682 196.687 34.6928 196.491 34.3475C196.295 33.9928 196.197 33.6008 196.197 33.1715Z" fill="#95F450"/>
</svg>
