<svg viewBox="0 0 272 52" fill="none" xmlns="http://www.w3.org/2000/svg">
<path fill-rule="evenodd" clip-rule="evenodd" d="M36.7755 23.5L33.6774 33.0612L32.4394 32.6888L35.8241 22.25H49.2626V18.5H39.3435L37.2577 16H29.8184V34.125C29.8184 35.1587 30.6908 36 31.7628 36H48.6314C49.5543 36 50.3567 35.3663 50.5382 34.4925L52.8184 23.5H36.7755Z" fill="#95F450"/>
<path d="M132.811 16.3435V23.4475C133.299 22.7595 133.919 22.2395 134.671 21.8875C135.423 21.5355 136.175 21.3595 136.927 21.3595C138.191 21.3595 139.103 21.6875 139.663 22.3435C140.223 22.9995 140.503 23.9075 140.503 25.0675V34.1875H139.015V24.8035C139.015 24.0515 138.811 23.4955 138.403 23.1355C137.995 22.7755 137.375 22.5955 136.543 22.5955C135.999 22.5955 135.483 22.7155 134.995 22.9555C134.507 23.1955 134.075 23.4915 133.699 23.8435C133.323 24.1875 133.027 24.5275 132.811 24.8635V34.1875H131.323V16.5235L132.811 16.3435ZM150.321 21.3595C151.473 21.3595 152.433 21.6275 153.201 22.1635C153.969 22.6995 154.541 23.4555 154.917 24.4315C155.301 25.4075 155.493 26.5595 155.493 27.8875C155.493 29.1355 155.297 30.2515 154.905 31.2355C154.513 32.2195 153.929 32.9995 153.153 33.5755C152.385 34.1435 151.429 34.4275 150.285 34.4275C149.133 34.4275 148.169 34.1555 147.393 33.6115C146.625 33.0595 146.045 32.2955 145.653 31.3195C145.269 30.3355 145.077 29.1995 145.077 27.9115C145.077 26.6235 145.273 25.4875 145.665 24.5035C146.057 23.5195 146.641 22.7515 147.417 22.1995C148.201 21.6395 149.169 21.3595 150.321 21.3595ZM150.321 22.6675C149.137 22.6675 148.237 23.0955 147.621 23.9515C147.013 24.8075 146.709 26.1275 146.709 27.9115C146.709 29.6555 147.009 30.9595 147.609 31.8235C148.209 32.6795 149.101 33.1075 150.285 33.1075C151.469 33.1075 152.361 32.6795 152.961 31.8235C153.561 30.9595 153.861 29.6475 153.861 27.8875C153.861 26.1195 153.561 24.8075 152.961 23.9515C152.369 23.0955 151.489 22.6675 150.321 22.6675ZM168.108 21.3595C168.452 21.3595 168.808 21.4395 169.176 21.5995C169.544 21.7515 169.856 22.0715 170.112 22.5595C170.368 23.0475 170.496 23.7915 170.496 24.7915V34.1875H169.032V25.0795C169.032 24.1835 168.98 23.5355 168.876 23.1355C168.78 22.7355 168.476 22.5355 167.964 22.5355C167.532 22.5355 167.104 22.6715 166.68 22.9435C166.264 23.2075 165.868 23.6435 165.492 24.2515V34.1875H163.836V25.0795C163.836 24.1835 163.784 23.5355 163.68 23.1355C163.584 22.7355 163.28 22.5355 162.768 22.5355C162.32 22.5355 161.888 22.6715 161.472 22.9435C161.064 23.2075 160.672 23.6435 160.296 24.2515V34.1875H158.856V21.5875H160.08L160.164 23.1115C160.492 22.6395 160.872 22.2315 161.304 21.8875C161.744 21.5355 162.288 21.3595 162.936 21.3595C163.416 21.3595 163.88 21.4755 164.328 21.7075C164.784 21.9315 165.12 22.3875 165.336 23.0755C165.664 22.5635 166.04 22.1515 166.464 21.8395C166.888 21.5195 167.436 21.3595 168.108 21.3595ZM175.575 28.4875C175.599 29.5435 175.787 30.4115 176.139 31.0915C176.499 31.7635 176.971 32.2595 177.555 32.5795C178.139 32.8995 178.775 33.0595 179.463 33.0595C180.127 33.0595 180.715 32.9635 181.227 32.7715C181.747 32.5795 182.291 32.2875 182.859 31.8955L183.639 33.0115C183.055 33.4595 182.395 33.8075 181.659 34.0555C180.931 34.3035 180.219 34.4275 179.523 34.4275C178.363 34.4275 177.367 34.1555 176.535 33.6115C175.711 33.0675 175.079 32.3075 174.639 31.3315C174.199 30.3475 173.979 29.2035 173.979 27.8995C173.979 26.6195 174.203 25.4875 174.651 24.5035C175.099 23.5195 175.719 22.7515 176.511 22.1995C177.311 21.6395 178.239 21.3595 179.295 21.3595C180.319 21.3595 181.195 21.6075 181.923 22.1035C182.651 22.5995 183.207 23.3035 183.591 24.2155C183.983 25.1195 184.179 26.1995 184.179 27.4555C184.179 27.6715 184.175 27.8675 184.167 28.0435C184.159 28.2115 184.151 28.3595 184.143 28.4875H175.575ZM179.331 22.7515C178.315 22.7515 177.459 23.1115 176.763 23.8315C176.075 24.5515 175.687 25.6555 175.599 27.1435H182.763C182.731 25.6635 182.399 24.5635 181.767 23.8435C181.135 23.1155 180.323 22.7515 179.331 22.7515ZM191.501 32.4595C191.501 32.0995 191.585 31.7755 191.753 31.4875C191.921 31.1915 192.149 30.9595 192.437 30.7915C192.725 30.6235 193.053 30.5395 193.421 30.5395C193.805 30.5395 194.145 30.6235 194.441 30.7915C194.737 30.9595 194.969 31.1915 195.137 31.4875C195.305 31.7755 195.389 32.0995 195.389 32.4595C195.389 32.8275 195.305 33.1635 195.137 33.4675C194.969 33.7635 194.737 33.9995 194.441 34.1755C194.145 34.3435 193.805 34.4275 193.421 34.4275C193.053 34.4275 192.725 34.3435 192.437 34.1755C192.149 33.9995 191.921 33.7635 191.753 33.4675C191.585 33.1635 191.501 32.8275 191.501 32.4595Z" fill="#95F450"/>
</svg>
