<svg width="271" height="52" viewBox="0 0 271 52" fill="none" xmlns="http://www.w3.org/2000/svg">
<path fill-rule="evenodd" clip-rule="evenodd" d="M36.0245 23.5L32.9264 33.0612L31.6885 32.6888L35.0731 22.25H48.5117V18.5H38.5925L36.5068 16H29.0674V34.125C29.0674 35.1587 29.9398 36 31.0118 36H47.8804C48.8033 36 49.6057 35.3663 49.7872 34.4925L52.0674 23.5H36.0245Z" fill="#95F450"/>
<path d="M107.794 21.2875C108.914 21.2875 109.806 21.5595 110.47 22.1035C111.142 22.6475 111.626 23.4155 111.922 24.4075C112.218 25.3915 112.366 26.5435 112.366 27.8635C112.366 29.1355 112.186 30.2715 111.826 31.2715C111.474 32.2635 110.938 33.0435 110.218 33.6115C109.498 34.1795 108.59 34.4635 107.494 34.4635C106.11 34.4635 104.998 33.9755 104.158 32.9995V39.0235L102.142 39.2755V21.5515H103.858L104.026 23.3155C104.49 22.6675 105.042 22.1675 105.682 21.8155C106.33 21.4635 107.034 21.2875 107.794 21.2875ZM107.314 22.9075C106.618 22.9075 106.002 23.1195 105.466 23.5435C104.938 23.9595 104.502 24.4235 104.158 24.9355V31.1995C104.486 31.6875 104.898 32.0755 105.394 32.3635C105.898 32.6435 106.45 32.7835 107.05 32.7835C108.098 32.7835 108.886 32.3835 109.414 31.5835C109.942 30.7835 110.206 29.5395 110.206 27.8515C110.206 26.7475 110.102 25.8315 109.894 25.1035C109.686 24.3675 109.37 23.8195 108.946 23.4595C108.522 23.0915 107.978 22.9075 107.314 22.9075ZM116.652 34.1875V32.6395H118.62V23.0995H116.652V21.5515H120.156L120.528 24.5395C121.016 23.4995 121.608 22.6955 122.304 22.1275C123 21.5595 123.92 21.2755 125.064 21.2755C125.416 21.2755 125.728 21.3035 126 21.3595C126.28 21.4075 126.564 21.4715 126.852 21.5515L126.264 23.3515C126 23.2795 125.76 23.2275 125.544 23.1955C125.328 23.1555 125.08 23.1355 124.8 23.1355C123.832 23.1355 123 23.4795 122.304 24.1675C121.608 24.8555 121.052 25.8955 120.636 27.2875V32.6395H123.204V34.1875H116.652ZM124.908 25.8235V23.0755L125.112 21.5515H126.852L126.564 25.8235H124.908ZM135.735 21.2875C136.927 21.2875 137.923 21.5595 138.723 22.1035C139.531 22.6395 140.135 23.3995 140.535 24.3835C140.943 25.3675 141.147 26.5275 141.147 27.8635C141.147 29.1515 140.939 30.2915 140.523 31.2835C140.107 32.2755 139.495 33.0555 138.687 33.6235C137.887 34.1835 136.895 34.4635 135.711 34.4635C134.527 34.4635 133.531 34.1915 132.723 33.6475C131.915 33.1035 131.303 32.3395 130.887 31.3555C130.479 30.3635 130.275 29.2075 130.275 27.8875C130.275 26.5835 130.483 25.4355 130.899 24.4435C131.315 23.4515 131.927 22.6795 132.735 22.1275C133.551 21.5675 134.551 21.2875 135.735 21.2875ZM135.735 22.9315C134.647 22.9315 133.823 23.3355 133.263 24.1435C132.711 24.9435 132.435 26.1915 132.435 27.8875C132.435 29.5515 132.707 30.7875 133.251 31.5955C133.803 32.4035 134.623 32.8075 135.711 32.8075C136.799 32.8075 137.615 32.4035 138.159 31.5955C138.711 30.7875 138.987 29.5435 138.987 27.8635C138.987 26.1835 138.715 24.9435 138.171 24.1435C137.627 23.3355 136.815 22.9315 135.735 22.9315ZM153.582 21.5515V32.1595C153.582 33.5675 153.266 34.7435 152.634 35.6875C152.002 36.6395 151.086 37.4035 149.886 37.9795C148.686 38.5555 147.234 38.9875 145.53 39.2755L145.194 37.7155C146.442 37.5075 147.546 37.1955 148.506 36.7795C149.466 36.3635 150.214 35.7915 150.75 35.0635C151.294 34.3435 151.566 33.4195 151.566 32.2915V23.1475H146.31V21.5515H153.582ZM151.698 15.6355C152.146 15.6355 152.506 15.7715 152.778 16.0435C153.05 16.3155 153.186 16.6475 153.186 17.0395C153.186 17.4475 153.05 17.7915 152.778 18.0715C152.506 18.3435 152.146 18.4795 151.698 18.4795C151.266 18.4795 150.918 18.3435 150.654 18.0715C150.39 17.7915 150.258 17.4475 150.258 17.0395C150.258 16.6475 150.39 16.3155 150.654 16.0435C150.918 15.7715 151.266 15.6355 151.698 15.6355ZM161.288 28.5835C161.328 29.5595 161.516 30.3595 161.852 30.9835C162.188 31.5995 162.632 32.0555 163.184 32.3515C163.736 32.6395 164.336 32.7835 164.984 32.7835C165.632 32.7835 166.216 32.6875 166.736 32.4955C167.264 32.3035 167.804 32.0195 168.356 31.6435L169.304 32.9755C168.712 33.4395 168.036 33.8035 167.276 34.0675C166.524 34.3315 165.752 34.4635 164.96 34.4635C163.736 34.4635 162.692 34.1875 161.828 33.6355C160.964 33.0835 160.304 32.3155 159.848 31.3315C159.4 30.3395 159.176 29.1915 159.176 27.8875C159.176 26.6075 159.404 25.4715 159.86 24.4795C160.316 23.4875 160.956 22.7075 161.78 22.1395C162.604 21.5715 163.576 21.2875 164.696 21.2875C165.76 21.2875 166.676 21.5395 167.444 22.0435C168.212 22.5395 168.8 23.2515 169.208 24.1795C169.624 25.0995 169.832 26.1995 169.832 27.4795C169.832 27.6955 169.828 27.8995 169.82 28.0915C169.812 28.2755 169.8 28.4395 169.784 28.5835H161.288ZM164.72 22.9435C163.784 22.9435 163 23.2755 162.368 23.9395C161.744 24.6035 161.388 25.6315 161.3 27.0235H167.888C167.864 25.6715 167.568 24.6555 167 23.9755C166.432 23.2875 165.672 22.9435 164.72 22.9435ZM179.807 32.7235C180.439 32.7235 181.027 32.6195 181.571 32.4115C182.123 32.2035 182.631 31.9395 183.095 31.6195L184.079 32.9395C183.527 33.4115 182.863 33.7835 182.087 34.0555C181.311 34.3275 180.551 34.4635 179.807 34.4635C178.551 34.4635 177.479 34.1955 176.591 33.6595C175.711 33.1155 175.039 32.3555 174.575 31.3795C174.111 30.3955 173.879 29.2435 173.879 27.9235C173.879 26.6595 174.111 25.5275 174.575 24.5275C175.047 23.5195 175.723 22.7275 176.603 22.1515C177.491 21.5755 178.567 21.2875 179.831 21.2875C180.639 21.2875 181.395 21.4115 182.099 21.6595C182.811 21.8995 183.463 22.2635 184.055 22.7515L183.071 24.0955C182.535 23.7195 181.995 23.4395 181.451 23.2555C180.915 23.0635 180.367 22.9675 179.807 22.9675C178.719 22.9675 177.823 23.3755 177.119 24.1915C176.415 25.0075 176.063 26.2515 176.063 27.9235C176.063 29.0435 176.223 29.9595 176.543 30.6715C176.871 31.3755 177.315 31.8955 177.875 32.2315C178.443 32.5595 179.087 32.7235 179.807 32.7235ZM198.518 33.5515C198.086 33.8395 197.562 34.0635 196.946 34.2235C196.33 34.3835 195.726 34.4635 195.134 34.4635C193.774 34.4635 192.726 34.1075 191.99 33.3955C191.254 32.6835 190.886 31.7675 190.886 30.6475V23.1115H187.982V21.5515H190.886V18.6835L192.902 18.4435V21.5515H197.27L197.03 23.1115H192.902V30.6235C192.902 31.3275 193.086 31.8635 193.454 32.2315C193.83 32.5995 194.45 32.7835 195.314 32.7835C195.786 32.7835 196.222 32.7275 196.622 32.6155C197.022 32.5035 197.394 32.3595 197.738 32.1835L198.518 33.5515ZM207.172 32.7955C208.14 32.7955 208.904 32.6155 209.464 32.2555C210.032 31.8875 210.316 31.3995 210.316 30.7915C210.316 30.4075 210.244 30.0755 210.1 29.7955C209.964 29.5155 209.68 29.2635 209.248 29.0395C208.816 28.8155 208.152 28.5915 207.256 28.3675C206.384 28.1515 205.624 27.9035 204.976 27.6235C204.336 27.3355 203.836 26.9635 203.476 26.5075C203.124 26.0515 202.948 25.4595 202.948 24.7315C202.948 24.0195 203.148 23.4075 203.548 22.8955C203.956 22.3755 204.52 21.9795 205.24 21.7075C205.96 21.4275 206.796 21.2875 207.748 21.2875C208.764 21.2875 209.648 21.4235 210.4 21.6955C211.16 21.9595 211.804 22.2875 212.332 22.6795L211.444 24.0475C210.964 23.7195 210.436 23.4515 209.86 23.2435C209.284 23.0275 208.588 22.9195 207.772 22.9195C206.78 22.9195 206.076 23.0755 205.66 23.3875C205.244 23.6915 205.036 24.0875 205.036 24.5755C205.036 24.9435 205.136 25.2515 205.336 25.4995C205.544 25.7395 205.892 25.9595 206.38 26.1595C206.868 26.3515 207.54 26.5635 208.396 26.7955C209.22 27.0115 209.936 27.2715 210.544 27.5755C211.16 27.8795 211.64 28.2795 211.984 28.7755C212.328 29.2715 212.5 29.9115 212.5 30.6955C212.5 31.5915 212.244 32.3195 211.732 32.8795C211.22 33.4315 210.556 33.8355 209.74 34.0915C208.932 34.3395 208.076 34.4635 207.172 34.4635C206.028 34.4635 205.052 34.2995 204.244 33.9715C203.444 33.6355 202.772 33.2315 202.228 32.7595L203.38 31.4275C203.876 31.8355 204.444 32.1675 205.084 32.4235C205.732 32.6715 206.428 32.7955 207.172 32.7955ZM219.931 32.3395C219.931 31.9475 220.023 31.5955 220.207 31.2835C220.391 30.9635 220.639 30.7115 220.951 30.5275C221.271 30.3355 221.631 30.2395 222.031 30.2395C222.439 30.2395 222.803 30.3355 223.123 30.5275C223.443 30.7115 223.695 30.9635 223.879 31.2835C224.063 31.5955 224.155 31.9475 224.155 32.3395C224.155 32.7315 224.063 33.0915 223.879 33.4195C223.695 33.7395 223.443 33.9955 223.123 34.1875C222.803 34.3715 222.439 34.4635 222.031 34.4635C221.631 34.4635 221.271 34.3715 220.951 34.1875C220.639 33.9955 220.391 33.7395 220.207 33.4195C220.023 33.0915 219.931 32.7315 219.931 32.3395Z" fill="#95F450"/>
</svg>
