<svg width="271" height="52" viewBox="0 0 271 52" fill="none" xmlns="http://www.w3.org/2000/svg">
<path fill-rule="evenodd" clip-rule="evenodd" d="M36.049 23.5L32.9508 33.0612L31.7129 32.6888L35.0975 22.25H48.5361V18.5H38.6169L36.5312 16H29.0918V34.125C29.0918 35.1587 29.9642 36 31.0362 36H47.9048C48.8277 36 49.6301 35.3663 49.8116 34.4925L52.0918 23.5H36.049Z" fill="#95F450"/>
<path d="M132.092 31.7035C132.092 32.2155 132.18 32.5915 132.356 32.8315C132.532 33.0635 132.804 33.2355 133.172 33.3475L132.764 34.4395C132.284 34.3675 131.856 34.1915 131.48 33.9115C131.104 33.6315 130.84 33.2035 130.688 32.6275C130.248 33.2115 129.696 33.6595 129.032 33.9715C128.376 34.2755 127.632 34.4275 126.8 34.4275C125.552 34.4275 124.572 34.0755 123.86 33.3715C123.148 32.6675 122.792 31.7275 122.792 30.5515C122.792 29.2715 123.288 28.2915 124.28 27.6115C125.28 26.9315 126.732 26.5915 128.636 26.5915H130.544V25.3675C130.544 24.3835 130.26 23.6955 129.692 23.3035C129.132 22.9035 128.364 22.7035 127.388 22.7035C126.964 22.7035 126.484 22.7515 125.948 22.8475C125.412 22.9435 124.816 23.1075 124.16 23.3395L123.728 22.1155C124.488 21.8355 125.176 21.6395 125.792 21.5275C126.416 21.4155 127.02 21.3595 127.604 21.3595C129.084 21.3595 130.2 21.7235 130.952 22.4515C131.712 23.1715 132.092 24.1275 132.092 25.3195V31.7035ZM127.088 33.2395C127.776 33.2395 128.42 33.0715 129.02 32.7355C129.62 32.3995 130.128 31.9315 130.544 31.3315V27.7315H128.456C126.96 27.7315 125.916 27.9955 125.324 28.5235C124.732 29.0435 124.436 29.7355 124.436 30.5995C124.436 31.4715 124.652 32.1315 125.084 32.5795C125.516 33.0195 126.184 33.2395 127.088 33.2395ZM139.414 23.3275C139.894 22.6955 140.442 22.2115 141.058 21.8755C141.682 21.5315 142.37 21.3595 143.122 21.3595C144.258 21.3595 145.174 21.6315 145.87 22.1755C146.566 22.7195 147.07 23.4835 147.382 24.4675C147.702 25.4435 147.862 26.5835 147.862 27.8875C147.862 29.1515 147.67 30.2755 147.286 31.2595C146.91 32.2435 146.354 33.0195 145.618 33.5875C144.882 34.1475 143.974 34.4275 142.894 34.4275C141.39 34.4275 140.214 33.8955 139.366 32.8315L139.222 34.1875H137.926V16.4875L139.414 16.2835V23.3275ZM142.57 33.1315C143.738 33.1315 144.63 32.6955 145.246 31.8235C145.87 30.9435 146.182 29.6235 146.182 27.8635C146.182 26.7435 146.058 25.7955 145.81 25.0195C145.57 24.2435 145.206 23.6515 144.718 23.2435C144.238 22.8355 143.634 22.6315 142.906 22.6315C142.122 22.6315 141.434 22.8675 140.842 23.3395C140.25 23.8035 139.774 24.2995 139.414 24.8275V31.3555C139.774 31.8915 140.23 32.3235 140.782 32.6515C141.342 32.9715 141.938 33.1315 142.57 33.1315ZM156.925 21.3595C158.077 21.3595 159.037 21.6275 159.805 22.1635C160.573 22.6995 161.145 23.4555 161.521 24.4315C161.905 25.4075 162.097 26.5595 162.097 27.8875C162.097 29.1355 161.901 30.2515 161.509 31.2355C161.117 32.2195 160.533 32.9995 159.757 33.5755C158.989 34.1435 158.033 34.4275 156.889 34.4275C155.737 34.4275 154.773 34.1555 153.997 33.6115C153.229 33.0595 152.649 32.2955 152.257 31.3195C151.873 30.3355 151.681 29.1995 151.681 27.9115C151.681 26.6235 151.877 25.4875 152.269 24.5035C152.661 23.5195 153.245 22.7515 154.021 22.1995C154.805 21.6395 155.773 21.3595 156.925 21.3595ZM156.925 22.6675C155.741 22.6675 154.841 23.0955 154.225 23.9515C153.617 24.8075 153.313 26.1275 153.313 27.9115C153.313 29.6555 153.613 30.9595 154.213 31.8235C154.813 32.6795 155.705 33.1075 156.889 33.1075C158.073 33.1075 158.965 32.6795 159.565 31.8235C160.165 30.9595 160.465 29.6475 160.465 27.8875C160.465 26.1195 160.165 24.8075 159.565 23.9515C158.973 23.0955 158.093 22.6675 156.925 22.6675ZM168.195 21.5875V30.5995C168.195 31.4955 168.383 32.1515 168.759 32.5675C169.143 32.9755 169.747 33.1795 170.571 33.1795C171.355 33.1795 172.091 32.9595 172.779 32.5195C173.467 32.0715 173.995 31.5595 174.363 30.9835V21.5875H175.851V34.1875H174.603L174.435 32.4235C173.923 33.0635 173.299 33.5595 172.563 33.9115C171.827 34.2555 171.091 34.4275 170.355 34.4275C169.139 34.4275 168.227 34.1115 167.619 33.4795C167.011 32.8395 166.707 31.9395 166.707 30.7795V21.5875H168.195ZM190.71 33.5875C190.294 33.8595 189.79 34.0675 189.198 34.2115C188.606 34.3555 188.058 34.4275 187.554 34.4275C186.29 34.4275 185.298 34.0915 184.578 33.4195C183.866 32.7475 183.51 31.9035 183.51 30.8875V22.8355H180.534V21.5875H183.51V18.6835L184.998 18.5035V21.5875H189.438L189.234 22.8355H184.998V30.8515C184.998 31.5795 185.194 32.1435 185.586 32.5435C185.986 32.9355 186.654 33.1315 187.59 33.1315C188.07 33.1315 188.514 33.0755 188.922 32.9635C189.33 32.8515 189.71 32.7035 190.062 32.5195L190.71 33.5875ZM198.105 32.4595C198.105 32.0995 198.189 31.7755 198.357 31.4875C198.525 31.1915 198.753 30.9595 199.041 30.7915C199.329 30.6235 199.657 30.5395 200.025 30.5395C200.409 30.5395 200.749 30.6235 201.045 30.7915C201.341 30.9595 201.573 31.1915 201.741 31.4875C201.909 31.7755 201.993 32.0995 201.993 32.4595C201.993 32.8275 201.909 33.1635 201.741 33.4675C201.573 33.7635 201.341 33.9995 201.045 34.1755C200.749 34.3435 200.409 34.4275 200.025 34.4275C199.657 34.4275 199.329 34.3435 199.041 34.1755C198.753 33.9995 198.525 33.7635 198.357 33.4675C198.189 33.1635 198.105 32.8275 198.105 32.4595Z" fill="#95F450"/>
</svg>
