<svg width="1280" height="52" viewBox="0 0 1280 52" fill="none" xmlns="http://www.w3.org/2000/svg">
<path fill-rule="evenodd" clip-rule="evenodd" d="M49.7755 23.5L46.6774 33.0612L45.4394 32.6888L48.8241 22.25H62.2626V18.5H52.3435L50.2577 16H42.8184V34.125C42.8184 35.1587 43.6908 36 44.7628 36H61.6314C62.5543 36 63.3567 35.3663 63.5382 34.4925L65.8184 23.5H49.7755Z" fill="#95F450"/>
<path d="M145.811 16.3435V23.4475C146.299 22.7595 146.919 22.2395 147.671 21.8875C148.423 21.5355 149.175 21.3595 149.927 21.3595C151.191 21.3595 152.103 21.6875 152.663 22.3435C153.223 22.9995 153.503 23.9075 153.503 25.0675V34.1875H152.015V24.8035C152.015 24.0515 151.811 23.4955 151.403 23.1355C150.995 22.7755 150.375 22.5955 149.543 22.5955C148.999 22.5955 148.483 22.7155 147.995 22.9555C147.507 23.1955 147.075 23.4915 146.699 23.8435C146.323 24.1875 146.027 24.5275 145.811 24.8635V34.1875H144.323V16.5235L145.811 16.3435ZM163.321 21.3595C164.473 21.3595 165.433 21.6275 166.201 22.1635C166.969 22.6995 167.541 23.4555 167.917 24.4315C168.301 25.4075 168.493 26.5595 168.493 27.8875C168.493 29.1355 168.297 30.2515 167.905 31.2355C167.513 32.2195 166.929 32.9995 166.153 33.5755C165.385 34.1435 164.429 34.4275 163.285 34.4275C162.133 34.4275 161.169 34.1555 160.393 33.6115C159.625 33.0595 159.045 32.2955 158.653 31.3195C158.269 30.3355 158.077 29.1995 158.077 27.9115C158.077 26.6235 158.273 25.4875 158.665 24.5035C159.057 23.5195 159.641 22.7515 160.417 22.1995C161.201 21.6395 162.169 21.3595 163.321 21.3595ZM163.321 22.6675C162.137 22.6675 161.237 23.0955 160.621 23.9515C160.013 24.8075 159.709 26.1275 159.709 27.9115C159.709 29.6555 160.009 30.9595 160.609 31.8235C161.209 32.6795 162.101 33.1075 163.285 33.1075C164.469 33.1075 165.361 32.6795 165.961 31.8235C166.561 30.9595 166.861 29.6475 166.861 27.8875C166.861 26.1195 166.561 24.8075 165.961 23.9515C165.369 23.0955 164.489 22.6675 163.321 22.6675ZM181.108 21.3595C181.452 21.3595 181.808 21.4395 182.176 21.5995C182.544 21.7515 182.856 22.0715 183.112 22.5595C183.368 23.0475 183.496 23.7915 183.496 24.7915V34.1875H182.032V25.0795C182.032 24.1835 181.98 23.5355 181.876 23.1355C181.78 22.7355 181.476 22.5355 180.964 22.5355C180.532 22.5355 180.104 22.6715 179.68 22.9435C179.264 23.2075 178.868 23.6435 178.492 24.2515V34.1875H176.836V25.0795C176.836 24.1835 176.784 23.5355 176.68 23.1355C176.584 22.7355 176.28 22.5355 175.768 22.5355C175.32 22.5355 174.888 22.6715 174.472 22.9435C174.064 23.2075 173.672 23.6435 173.296 24.2515V34.1875H171.856V21.5875H173.08L173.164 23.1115C173.492 22.6395 173.872 22.2315 174.304 21.8875C174.744 21.5355 175.288 21.3595 175.936 21.3595C176.416 21.3595 176.88 21.4755 177.328 21.7075C177.784 21.9315 178.12 22.3875 178.336 23.0755C178.664 22.5635 179.04 22.1515 179.464 21.8395C179.888 21.5195 180.436 21.3595 181.108 21.3595ZM188.575 28.4875C188.599 29.5435 188.787 30.4115 189.139 31.0915C189.499 31.7635 189.971 32.2595 190.555 32.5795C191.139 32.8995 191.775 33.0595 192.463 33.0595C193.127 33.0595 193.715 32.9635 194.227 32.7715C194.747 32.5795 195.291 32.2875 195.859 31.8955L196.639 33.0115C196.055 33.4595 195.395 33.8075 194.659 34.0555C193.931 34.3035 193.219 34.4275 192.523 34.4275C191.363 34.4275 190.367 34.1555 189.535 33.6115C188.711 33.0675 188.079 32.3075 187.639 31.3315C187.199 30.3475 186.979 29.2035 186.979 27.8995C186.979 26.6195 187.203 25.4875 187.651 24.5035C188.099 23.5195 188.719 22.7515 189.511 22.1995C190.311 21.6395 191.239 21.3595 192.295 21.3595C193.319 21.3595 194.195 21.6075 194.923 22.1035C195.651 22.5995 196.207 23.3035 196.591 24.2155C196.983 25.1195 197.179 26.1995 197.179 27.4555C197.179 27.6715 197.175 27.8675 197.167 28.0435C197.159 28.2115 197.151 28.3595 197.143 28.4875H188.575ZM192.331 22.7515C191.315 22.7515 190.459 23.1115 189.763 23.8315C189.075 24.5515 188.687 25.6555 188.599 27.1435H195.763C195.731 25.6635 195.399 24.5635 194.767 23.8435C194.135 23.1155 193.323 22.7515 192.331 22.7515ZM204.501 32.4595C204.501 32.0995 204.585 31.7755 204.753 31.4875C204.921 31.1915 205.149 30.9595 205.437 30.7915C205.725 30.6235 206.053 30.5395 206.421 30.5395C206.805 30.5395 207.145 30.6235 207.441 30.7915C207.737 30.9595 207.969 31.1915 208.137 31.4875C208.305 31.7755 208.389 32.0995 208.389 32.4595C208.389 32.8275 208.305 33.1635 208.137 33.4675C207.969 33.7635 207.737 33.9995 207.441 34.1755C207.145 34.3435 206.805 34.4275 206.421 34.4275C206.053 34.4275 205.725 34.3435 205.437 34.1755C205.149 33.9995 204.921 33.7635 204.753 33.4675C204.585 33.1635 204.501 32.8275 204.501 32.4595Z" fill="#95F450"/>
<path fill-rule="evenodd" clip-rule="evenodd" d="M377.049 23.5L373.951 33.0612L372.713 32.6888L376.097 22.25H389.536V18.5H379.617L377.531 16H370.092V34.125C370.092 35.1587 370.964 36 372.036 36H388.905C389.828 36 390.63 35.3663 390.812 34.4925L393.092 23.5H377.049Z" fill="#95F450"/>
<path d="M473.092 31.7035C473.092 32.2155 473.18 32.5915 473.356 32.8315C473.532 33.0635 473.804 33.2355 474.172 33.3475L473.764 34.4395C473.284 34.3675 472.856 34.1915 472.48 33.9115C472.104 33.6315 471.84 33.2035 471.688 32.6275C471.248 33.2115 470.696 33.6595 470.032 33.9715C469.376 34.2755 468.632 34.4275 467.8 34.4275C466.552 34.4275 465.572 34.0755 464.86 33.3715C464.148 32.6675 463.792 31.7275 463.792 30.5515C463.792 29.2715 464.288 28.2915 465.28 27.6115C466.28 26.9315 467.732 26.5915 469.636 26.5915H471.544V25.3675C471.544 24.3835 471.26 23.6955 470.692 23.3035C470.132 22.9035 469.364 22.7035 468.388 22.7035C467.964 22.7035 467.484 22.7515 466.948 22.8475C466.412 22.9435 465.816 23.1075 465.16 23.3395L464.728 22.1155C465.488 21.8355 466.176 21.6395 466.792 21.5275C467.416 21.4155 468.02 21.3595 468.604 21.3595C470.084 21.3595 471.2 21.7235 471.952 22.4515C472.712 23.1715 473.092 24.1275 473.092 25.3195V31.7035ZM468.088 33.2395C468.776 33.2395 469.42 33.0715 470.02 32.7355C470.62 32.3995 471.128 31.9315 471.544 31.3315V27.7315H469.456C467.96 27.7315 466.916 27.9955 466.324 28.5235C465.732 29.0435 465.436 29.7355 465.436 30.5995C465.436 31.4715 465.652 32.1315 466.084 32.5795C466.516 33.0195 467.184 33.2395 468.088 33.2395ZM480.414 23.3275C480.894 22.6955 481.442 22.2115 482.058 21.8755C482.682 21.5315 483.37 21.3595 484.122 21.3595C485.258 21.3595 486.174 21.6315 486.87 22.1755C487.566 22.7195 488.07 23.4835 488.382 24.4675C488.702 25.4435 488.862 26.5835 488.862 27.8875C488.862 29.1515 488.67 30.2755 488.286 31.2595C487.91 32.2435 487.354 33.0195 486.618 33.5875C485.882 34.1475 484.974 34.4275 483.894 34.4275C482.39 34.4275 481.214 33.8955 480.366 32.8315L480.222 34.1875H478.926V16.4875L480.414 16.2835V23.3275ZM483.57 33.1315C484.738 33.1315 485.63 32.6955 486.246 31.8235C486.87 30.9435 487.182 29.6235 487.182 27.8635C487.182 26.7435 487.058 25.7955 486.81 25.0195C486.57 24.2435 486.206 23.6515 485.718 23.2435C485.238 22.8355 484.634 22.6315 483.906 22.6315C483.122 22.6315 482.434 22.8675 481.842 23.3395C481.25 23.8035 480.774 24.2995 480.414 24.8275V31.3555C480.774 31.8915 481.23 32.3235 481.782 32.6515C482.342 32.9715 482.938 33.1315 483.57 33.1315ZM497.925 21.3595C499.077 21.3595 500.037 21.6275 500.805 22.1635C501.573 22.6995 502.145 23.4555 502.521 24.4315C502.905 25.4075 503.097 26.5595 503.097 27.8875C503.097 29.1355 502.901 30.2515 502.509 31.2355C502.117 32.2195 501.533 32.9995 500.757 33.5755C499.989 34.1435 499.033 34.4275 497.889 34.4275C496.737 34.4275 495.773 34.1555 494.997 33.6115C494.229 33.0595 493.649 32.2955 493.257 31.3195C492.873 30.3355 492.681 29.1995 492.681 27.9115C492.681 26.6235 492.877 25.4875 493.269 24.5035C493.661 23.5195 494.245 22.7515 495.021 22.1995C495.805 21.6395 496.773 21.3595 497.925 21.3595ZM497.925 22.6675C496.741 22.6675 495.841 23.0955 495.225 23.9515C494.617 24.8075 494.313 26.1275 494.313 27.9115C494.313 29.6555 494.613 30.9595 495.213 31.8235C495.813 32.6795 496.705 33.1075 497.889 33.1075C499.073 33.1075 499.965 32.6795 500.565 31.8235C501.165 30.9595 501.465 29.6475 501.465 27.8875C501.465 26.1195 501.165 24.8075 500.565 23.9515C499.973 23.0955 499.093 22.6675 497.925 22.6675ZM509.195 21.5875V30.5995C509.195 31.4955 509.383 32.1515 509.759 32.5675C510.143 32.9755 510.747 33.1795 511.571 33.1795C512.355 33.1795 513.091 32.9595 513.779 32.5195C514.467 32.0715 514.995 31.5595 515.363 30.9835V21.5875H516.851V34.1875H515.603L515.435 32.4235C514.923 33.0635 514.299 33.5595 513.563 33.9115C512.827 34.2555 512.091 34.4275 511.355 34.4275C510.139 34.4275 509.227 34.1115 508.619 33.4795C508.011 32.8395 507.707 31.9395 507.707 30.7795V21.5875H509.195ZM531.71 33.5875C531.294 33.8595 530.79 34.0675 530.198 34.2115C529.606 34.3555 529.058 34.4275 528.554 34.4275C527.29 34.4275 526.298 34.0915 525.578 33.4195C524.866 32.7475 524.51 31.9035 524.51 30.8875V22.8355H521.534V21.5875H524.51V18.6835L525.998 18.5035V21.5875H530.438L530.234 22.8355H525.998V30.8515C525.998 31.5795 526.194 32.1435 526.586 32.5435C526.986 32.9355 527.654 33.1315 528.59 33.1315C529.07 33.1315 529.514 33.0755 529.922 32.9635C530.33 32.8515 530.71 32.7035 531.062 32.5195L531.71 33.5875ZM539.105 32.4595C539.105 32.0995 539.189 31.7755 539.357 31.4875C539.525 31.1915 539.753 30.9595 540.041 30.7915C540.329 30.6235 540.657 30.5395 541.025 30.5395C541.409 30.5395 541.749 30.6235 542.045 30.7915C542.341 30.9595 542.573 31.1915 542.741 31.4875C542.909 31.7755 542.993 32.0995 542.993 32.4595C542.993 32.8275 542.909 33.1635 542.741 33.4675C542.573 33.7635 542.341 33.9995 542.045 34.1755C541.749 34.3435 541.409 34.4275 541.025 34.4275C540.657 34.4275 540.329 34.3435 540.041 34.1755C539.753 33.9995 539.525 33.7635 539.357 33.4675C539.189 33.1635 539.105 32.8275 539.105 32.4595Z" fill="#95F450"/>
<path fill-rule="evenodd" clip-rule="evenodd" d="M704.025 23.5L700.926 33.0612L699.688 32.6888L703.073 22.25H716.512V18.5H706.592L704.507 16H697.067V34.125C697.067 35.1587 697.94 36 699.012 36H715.88C716.803 36 717.606 35.3663 717.787 34.4925L720.067 23.5H704.025Z" fill="#95F450"/>
<path d="M775.794 21.2875C776.914 21.2875 777.806 21.5595 778.47 22.1035C779.142 22.6475 779.626 23.4155 779.922 24.4075C780.218 25.3915 780.366 26.5435 780.366 27.8635C780.366 29.1355 780.186 30.2715 779.826 31.2715C779.474 32.2635 778.938 33.0435 778.218 33.6115C777.498 34.1795 776.59 34.4635 775.494 34.4635C774.11 34.4635 772.998 33.9755 772.158 32.9995V39.0235L770.142 39.2755V21.5515H771.858L772.026 23.3155C772.49 22.6675 773.042 22.1675 773.682 21.8155C774.33 21.4635 775.034 21.2875 775.794 21.2875ZM775.314 22.9075C774.618 22.9075 774.002 23.1195 773.466 23.5435C772.938 23.9595 772.502 24.4235 772.158 24.9355V31.1995C772.486 31.6875 772.898 32.0755 773.394 32.3635C773.898 32.6435 774.45 32.7835 775.05 32.7835C776.098 32.7835 776.886 32.3835 777.414 31.5835C777.942 30.7835 778.206 29.5395 778.206 27.8515C778.206 26.7475 778.102 25.8315 777.894 25.1035C777.686 24.3675 777.37 23.8195 776.946 23.4595C776.522 23.0915 775.978 22.9075 775.314 22.9075ZM784.652 34.1875V32.6395H786.62V23.0995H784.652V21.5515H788.156L788.528 24.5395C789.016 23.4995 789.608 22.6955 790.304 22.1275C791 21.5595 791.92 21.2755 793.064 21.2755C793.416 21.2755 793.728 21.3035 794 21.3595C794.28 21.4075 794.564 21.4715 794.852 21.5515L794.264 23.3515C794 23.2795 793.76 23.2275 793.544 23.1955C793.328 23.1555 793.08 23.1355 792.8 23.1355C791.832 23.1355 791 23.4795 790.304 24.1675C789.608 24.8555 789.052 25.8955 788.636 27.2875V32.6395H791.204V34.1875H784.652ZM792.908 25.8235V23.0755L793.112 21.5515H794.852L794.564 25.8235H792.908ZM803.735 21.2875C804.927 21.2875 805.923 21.5595 806.723 22.1035C807.531 22.6395 808.135 23.3995 808.535 24.3835C808.943 25.3675 809.147 26.5275 809.147 27.8635C809.147 29.1515 808.939 30.2915 808.523 31.2835C808.107 32.2755 807.495 33.0555 806.687 33.6235C805.887 34.1835 804.895 34.4635 803.711 34.4635C802.527 34.4635 801.531 34.1915 800.723 33.6475C799.915 33.1035 799.303 32.3395 798.887 31.3555C798.479 30.3635 798.275 29.2075 798.275 27.8875C798.275 26.5835 798.483 25.4355 798.899 24.4435C799.315 23.4515 799.927 22.6795 800.735 22.1275C801.551 21.5675 802.551 21.2875 803.735 21.2875ZM803.735 22.9315C802.647 22.9315 801.823 23.3355 801.263 24.1435C800.711 24.9435 800.435 26.1915 800.435 27.8875C800.435 29.5515 800.707 30.7875 801.251 31.5955C801.803 32.4035 802.623 32.8075 803.711 32.8075C804.799 32.8075 805.615 32.4035 806.159 31.5955C806.711 30.7875 806.987 29.5435 806.987 27.8635C806.987 26.1835 806.715 24.9435 806.171 24.1435C805.627 23.3355 804.815 22.9315 803.735 22.9315ZM821.582 21.5515V32.1595C821.582 33.5675 821.266 34.7435 820.634 35.6875C820.002 36.6395 819.086 37.4035 817.886 37.9795C816.686 38.5555 815.234 38.9875 813.53 39.2755L813.194 37.7155C814.442 37.5075 815.546 37.1955 816.506 36.7795C817.466 36.3635 818.214 35.7915 818.75 35.0635C819.294 34.3435 819.566 33.4195 819.566 32.2915V23.1475H814.31V21.5515H821.582ZM819.698 15.6355C820.146 15.6355 820.506 15.7715 820.778 16.0435C821.05 16.3155 821.186 16.6475 821.186 17.0395C821.186 17.4475 821.05 17.7915 820.778 18.0715C820.506 18.3435 820.146 18.4795 819.698 18.4795C819.266 18.4795 818.918 18.3435 818.654 18.0715C818.39 17.7915 818.258 17.4475 818.258 17.0395C818.258 16.6475 818.39 16.3155 818.654 16.0435C818.918 15.7715 819.266 15.6355 819.698 15.6355ZM829.288 28.5835C829.328 29.5595 829.516 30.3595 829.852 30.9835C830.188 31.5995 830.632 32.0555 831.184 32.3515C831.736 32.6395 832.336 32.7835 832.984 32.7835C833.632 32.7835 834.216 32.6875 834.736 32.4955C835.264 32.3035 835.804 32.0195 836.356 31.6435L837.304 32.9755C836.712 33.4395 836.036 33.8035 835.276 34.0675C834.524 34.3315 833.752 34.4635 832.96 34.4635C831.736 34.4635 830.692 34.1875 829.828 33.6355C828.964 33.0835 828.304 32.3155 827.848 31.3315C827.4 30.3395 827.176 29.1915 827.176 27.8875C827.176 26.6075 827.404 25.4715 827.86 24.4795C828.316 23.4875 828.956 22.7075 829.78 22.1395C830.604 21.5715 831.576 21.2875 832.696 21.2875C833.76 21.2875 834.676 21.5395 835.444 22.0435C836.212 22.5395 836.8 23.2515 837.208 24.1795C837.624 25.0995 837.832 26.1995 837.832 27.4795C837.832 27.6955 837.828 27.8995 837.82 28.0915C837.812 28.2755 837.8 28.4395 837.784 28.5835H829.288ZM832.72 22.9435C831.784 22.9435 831 23.2755 830.368 23.9395C829.744 24.6035 829.388 25.6315 829.3 27.0235H835.888C835.864 25.6715 835.568 24.6555 835 23.9755C834.432 23.2875 833.672 22.9435 832.72 22.9435ZM847.807 32.7235C848.439 32.7235 849.027 32.6195 849.571 32.4115C850.123 32.2035 850.631 31.9395 851.095 31.6195L852.079 32.9395C851.527 33.4115 850.863 33.7835 850.087 34.0555C849.311 34.3275 848.551 34.4635 847.807 34.4635C846.551 34.4635 845.479 34.1955 844.591 33.6595C843.711 33.1155 843.039 32.3555 842.575 31.3795C842.111 30.3955 841.879 29.2435 841.879 27.9235C841.879 26.6595 842.111 25.5275 842.575 24.5275C843.047 23.5195 843.723 22.7275 844.603 22.1515C845.491 21.5755 846.567 21.2875 847.831 21.2875C848.639 21.2875 849.395 21.4115 850.099 21.6595C850.811 21.8995 851.463 22.2635 852.055 22.7515L851.071 24.0955C850.535 23.7195 849.995 23.4395 849.451 23.2555C848.915 23.0635 848.367 22.9675 847.807 22.9675C846.719 22.9675 845.823 23.3755 845.119 24.1915C844.415 25.0075 844.063 26.2515 844.063 27.9235C844.063 29.0435 844.223 29.9595 844.543 30.6715C844.871 31.3755 845.315 31.8955 845.875 32.2315C846.443 32.5595 847.087 32.7235 847.807 32.7235ZM866.518 33.5515C866.086 33.8395 865.562 34.0635 864.946 34.2235C864.33 34.3835 863.726 34.4635 863.134 34.4635C861.774 34.4635 860.726 34.1075 859.99 33.3955C859.254 32.6835 858.886 31.7675 858.886 30.6475V23.1115H855.982V21.5515H858.886V18.6835L860.902 18.4435V21.5515H865.27L865.03 23.1115H860.902V30.6235C860.902 31.3275 861.086 31.8635 861.454 32.2315C861.83 32.5995 862.45 32.7835 863.314 32.7835C863.786 32.7835 864.222 32.7275 864.622 32.6155C865.022 32.5035 865.394 32.3595 865.738 32.1835L866.518 33.5515ZM875.172 32.7955C876.14 32.7955 876.904 32.6155 877.464 32.2555C878.032 31.8875 878.316 31.3995 878.316 30.7915C878.316 30.4075 878.244 30.0755 878.1 29.7955C877.964 29.5155 877.68 29.2635 877.248 29.0395C876.816 28.8155 876.152 28.5915 875.256 28.3675C874.384 28.1515 873.624 27.9035 872.976 27.6235C872.336 27.3355 871.836 26.9635 871.476 26.5075C871.124 26.0515 870.948 25.4595 870.948 24.7315C870.948 24.0195 871.148 23.4075 871.548 22.8955C871.956 22.3755 872.52 21.9795 873.24 21.7075C873.96 21.4275 874.796 21.2875 875.748 21.2875C876.764 21.2875 877.648 21.4235 878.4 21.6955C879.16 21.9595 879.804 22.2875 880.332 22.6795L879.444 24.0475C878.964 23.7195 878.436 23.4515 877.86 23.2435C877.284 23.0275 876.588 22.9195 875.772 22.9195C874.78 22.9195 874.076 23.0755 873.66 23.3875C873.244 23.6915 873.036 24.0875 873.036 24.5755C873.036 24.9435 873.136 25.2515 873.336 25.4995C873.544 25.7395 873.892 25.9595 874.38 26.1595C874.868 26.3515 875.54 26.5635 876.396 26.7955C877.22 27.0115 877.936 27.2715 878.544 27.5755C879.16 27.8795 879.64 28.2795 879.984 28.7755C880.328 29.2715 880.5 29.9115 880.5 30.6955C880.5 31.5915 880.244 32.3195 879.732 32.8795C879.22 33.4315 878.556 33.8355 877.74 34.0915C876.932 34.3395 876.076 34.4635 875.172 34.4635C874.028 34.4635 873.052 34.2995 872.244 33.9715C871.444 33.6355 870.772 33.2315 870.228 32.7595L871.38 31.4275C871.876 31.8355 872.444 32.1675 873.084 32.4235C873.732 32.6715 874.428 32.7955 875.172 32.7955ZM887.931 32.3395C887.931 31.9475 888.023 31.5955 888.207 31.2835C888.391 30.9635 888.639 30.7115 888.951 30.5275C889.271 30.3355 889.631 30.2395 890.031 30.2395C890.439 30.2395 890.803 30.3355 891.123 30.5275C891.443 30.7115 891.695 30.9635 891.879 31.2835C892.063 31.5955 892.155 31.9475 892.155 32.3395C892.155 32.7315 892.063 33.0915 891.879 33.4195C891.695 33.7395 891.443 33.9955 891.123 34.1875C890.803 34.3715 890.439 34.4635 890.031 34.4635C889.631 34.4635 889.271 34.3715 888.951 34.1875C888.639 33.9955 888.391 33.7395 888.207 33.4195C888.023 33.0915 887.931 32.7315 887.931 32.3395Z" fill="#95F450"/>
<path fill-rule="evenodd" clip-rule="evenodd" d="M1032 23.5L1028.9 33.0612L1027.66 32.6888L1031.05 22.25H1044.49V18.5H1034.57L1032.48 16H1025.04V34.125C1025.04 35.1587 1025.92 36 1026.99 36H1043.86C1044.78 36 1045.58 35.3663 1045.76 34.4925L1048.04 23.5H1032Z" fill="#95F450"/>
<path d="M1122.73 22.5175C1123.29 21.7802 1123.92 21.2155 1124.64 20.8235C1125.37 20.4222 1126.17 20.2215 1127.05 20.2215C1128.38 20.2215 1129.45 20.5388 1130.26 21.1735C1131.07 21.8082 1131.66 22.6995 1132.02 23.8475C1132.39 24.9862 1132.58 26.3162 1132.58 27.8375C1132.58 29.3122 1132.36 30.6235 1131.91 31.7715C1131.47 32.9195 1130.82 33.8248 1129.96 34.4875C1129.1 35.1408 1128.05 35.4675 1126.79 35.4675C1125.03 35.4675 1123.66 34.8468 1122.67 33.6055L1122.5 35.1875H1120.99V14.5375L1122.73 14.2995V22.5175ZM1126.41 33.9555C1127.77 33.9555 1128.81 33.4468 1129.53 32.4295C1130.26 31.4028 1130.62 29.8628 1130.62 27.8095C1130.62 26.5028 1130.48 25.3968 1130.19 24.4915C1129.91 23.5862 1129.48 22.8955 1128.91 22.4195C1128.35 21.9435 1127.65 21.7055 1126.8 21.7055C1125.88 21.7055 1125.08 21.9808 1124.39 22.5315C1123.7 23.0728 1123.15 23.6515 1122.73 24.2675V31.8835C1123.15 32.5088 1123.68 33.0128 1124.32 33.3955C1124.97 33.7688 1125.67 33.9555 1126.41 33.9555ZM1142.92 14.5375V31.8555C1142.92 32.6208 1143.16 33.1622 1143.64 33.4795C1144.14 33.7968 1144.76 33.9555 1145.51 33.9555C1145.97 33.9555 1146.41 33.9088 1146.82 33.8155C1147.24 33.7222 1147.67 33.5915 1148.1 33.4235L1148.6 34.7675C1148.24 34.9448 1147.77 35.1035 1147.21 35.2435C1146.65 35.3928 1146.03 35.4675 1145.34 35.4675C1144.18 35.4675 1143.2 35.1548 1142.38 34.5295C1141.58 33.8948 1141.18 33.0035 1141.18 31.8555V16.0495H1136.62V14.5375H1142.92ZM1159.94 20.2215C1161.29 20.2215 1162.41 20.5342 1163.3 21.1595C1164.2 21.7848 1164.87 22.6668 1165.31 23.8055C1165.75 24.9442 1165.98 26.2882 1165.98 27.8375C1165.98 29.2935 1165.75 30.5955 1165.29 31.7435C1164.83 32.8915 1164.15 33.8015 1163.25 34.4735C1162.35 35.1362 1161.24 35.4675 1159.9 35.4675C1158.56 35.4675 1157.43 35.1502 1156.53 34.5155C1155.63 33.8715 1154.95 32.9802 1154.5 31.8415C1154.05 30.6935 1153.83 29.3682 1153.83 27.8655C1153.83 26.3628 1154.05 25.0375 1154.51 23.8895C1154.97 22.7415 1155.65 21.8455 1156.56 21.2015C1157.47 20.5482 1158.6 20.2215 1159.94 20.2215ZM1159.94 21.7475C1158.56 21.7475 1157.51 22.2468 1156.79 23.2455C1156.08 24.2442 1155.73 25.7842 1155.73 27.8655C1155.73 29.9002 1156.08 31.4215 1156.78 32.4295C1157.48 33.4282 1158.52 33.9275 1159.9 33.9275C1161.28 33.9275 1162.32 33.4282 1163.02 32.4295C1163.72 31.4215 1164.07 29.8908 1164.07 27.8375C1164.07 25.7748 1163.72 24.2442 1163.02 23.2455C1162.33 22.2468 1161.31 21.7475 1159.94 21.7475ZM1182.98 19.1575L1183.62 21.0615C1182.96 21.2482 1182.27 21.3602 1181.56 21.3975C1180.85 21.4348 1180.1 21.4535 1179.29 21.4535C1180.13 21.8362 1180.75 22.3448 1181.16 22.9795C1181.57 23.6048 1181.77 24.3188 1181.77 25.1215C1181.77 26.0922 1181.56 26.9602 1181.14 27.7255C1180.72 28.4815 1180.12 29.0742 1179.32 29.5035C1178.54 29.9328 1177.58 30.1475 1176.45 30.1475C1175.9 30.1475 1175.45 30.1242 1175.11 30.0775C1174.76 30.0215 1174.43 29.9375 1174.1 29.8255C1173.87 30.0028 1173.67 30.2362 1173.5 30.5255C1173.34 30.8148 1173.26 31.1182 1173.26 31.4355C1173.26 31.8182 1173.41 32.1355 1173.71 32.3875C1174.02 32.6395 1174.56 32.7655 1175.33 32.7655H1178.05C1178.99 32.7655 1179.85 32.9382 1180.61 33.2835C1181.39 33.6288 1182 34.0955 1182.44 34.6835C1182.9 35.2715 1183.13 35.9342 1183.13 36.6715C1183.13 38.0995 1182.53 39.1822 1181.32 39.9195C1180.13 40.6662 1178.47 41.0395 1176.35 41.0395C1174.89 41.0395 1173.72 40.8855 1172.85 40.5775C1171.99 40.2788 1171.36 39.8075 1170.98 39.1635C1170.61 38.5288 1170.42 37.7075 1170.42 36.6995H1172.01C1172.01 37.3155 1172.13 37.8242 1172.36 38.2255C1172.61 38.6268 1173.04 38.9255 1173.65 39.1215C1174.27 39.3268 1175.15 39.4295 1176.3 39.4295C1177.43 39.4295 1178.36 39.3315 1179.1 39.1355C1179.85 38.9488 1180.41 38.6595 1180.78 38.2675C1181.15 37.8755 1181.34 37.3808 1181.34 36.7835C1181.34 36.0088 1180.98 35.4302 1180.26 35.0475C1179.54 34.6648 1178.68 34.4735 1177.67 34.4735H1174.95C1173.78 34.4735 1172.91 34.1982 1172.35 33.6475C1171.79 33.0968 1171.51 32.4668 1171.51 31.7575C1171.51 31.3095 1171.64 30.8708 1171.9 30.4415C1172.17 30.0028 1172.57 29.6062 1173.11 29.2515C1172.29 28.8222 1171.69 28.2808 1171.29 27.6275C1170.89 26.9742 1170.68 26.1762 1170.68 25.2335C1170.68 24.2722 1170.92 23.4135 1171.4 22.6575C1171.87 21.9015 1172.54 21.3042 1173.39 20.8655C1174.24 20.4268 1175.22 20.2075 1176.34 20.2075C1177.62 20.1888 1178.64 20.1422 1179.39 20.0675C1180.16 19.9835 1180.8 19.8668 1181.32 19.7175C1181.86 19.5682 1182.41 19.3815 1182.98 19.1575ZM1176.3 21.5795C1174.97 21.5795 1174 21.9295 1173.39 22.6295C1172.78 23.3295 1172.48 24.2068 1172.48 25.2615C1172.48 26.3068 1172.79 27.1842 1173.41 27.8935C1174.04 28.5935 1175.03 28.9435 1176.38 28.9435C1177.51 28.9435 1178.38 28.6168 1178.97 27.9635C1179.57 27.3102 1179.87 26.4048 1179.87 25.2475C1179.87 24.0528 1179.57 23.1428 1178.97 22.5175C1178.38 21.8922 1177.48 21.5795 1176.3 21.5795ZM1191.2 33.1715C1191.2 32.7515 1191.3 32.3735 1191.49 32.0375C1191.69 31.6922 1191.95 31.4215 1192.29 31.2255C1192.63 31.0295 1193.01 30.9315 1193.44 30.9315C1193.89 30.9315 1194.28 31.0295 1194.63 31.2255C1194.97 31.4215 1195.24 31.6922 1195.44 32.0375C1195.64 32.3735 1195.73 32.7515 1195.73 33.1715C1195.73 33.6008 1195.64 33.9928 1195.44 34.3475C1195.24 34.6928 1194.97 34.9682 1194.63 35.1735C1194.28 35.3695 1193.89 35.4675 1193.44 35.4675C1193.01 35.4675 1192.63 35.3695 1192.29 35.1735C1191.95 34.9682 1191.69 34.6928 1191.49 34.3475C1191.3 33.9928 1191.2 33.6008 1191.2 33.1715Z" fill="#95F450"/>
</svg>
