<svg width="1179" height="96" viewBox="0 0 1179 96" fill="none" xmlns="http://www.w3.org/2000/svg">
<path d="M172.665 53.4402C172.665 54.0095 172.749 54.4249 172.917 54.6862C173.085 54.9382 173.356 55.1295 173.729 55.2602L172.931 57.7382C172.138 57.6542 171.461 57.4582 170.901 57.1502C170.351 56.8329 169.926 56.3615 169.627 55.7362C169.067 56.4175 168.358 56.9262 167.499 57.2622C166.65 57.5982 165.759 57.7662 164.825 57.7662C163.313 57.7662 162.114 57.3369 161.227 56.4782C160.341 55.6195 159.897 54.5042 159.897 53.1322C159.897 51.5549 160.513 50.3415 161.745 49.4922C162.987 48.6335 164.741 48.2042 167.009 48.2042H169.081V47.4062C169.081 46.5289 168.811 45.8942 168.269 45.5022C167.728 45.1009 166.949 44.9002 165.931 44.9002C165.455 44.9002 164.858 44.9655 164.139 45.0962C163.43 45.2175 162.697 45.4089 161.941 45.6702L161.059 43.1362C162.002 42.7815 162.949 42.5202 163.901 42.3522C164.863 42.1842 165.735 42.1002 166.519 42.1002C168.601 42.1002 170.145 42.5435 171.153 43.4302C172.161 44.3075 172.665 45.5535 172.665 47.1682V53.4402ZM166.029 55.0922C166.589 55.0922 167.154 54.9335 167.723 54.6162C168.302 54.2989 168.755 53.8555 169.081 53.2862V50.4022H167.625C166.253 50.4022 165.259 50.6215 164.643 51.0602C164.037 51.4989 163.733 52.1195 163.733 52.9222C163.733 53.6129 163.929 54.1495 164.321 54.5322C164.713 54.9055 165.283 55.0922 166.029 55.0922ZM181.32 44.1862C181.815 43.5329 182.398 43.0242 183.07 42.6602C183.752 42.2869 184.484 42.1002 185.268 42.1002C186.566 42.1002 187.616 42.4222 188.418 43.0662C189.23 43.7009 189.823 44.6015 190.196 45.7682C190.579 46.9349 190.77 48.3115 190.77 49.8982C190.77 51.4195 190.546 52.7729 190.098 53.9582C189.65 55.1435 188.983 56.0769 188.096 56.7582C187.219 57.4302 186.141 57.7662 184.862 57.7662C183.257 57.7662 181.992 57.1549 181.068 55.9322L180.9 57.3462H177.624V36.5982L181.32 36.2062V44.1862ZM183.91 55.0082C184.853 55.0082 185.59 54.6069 186.122 53.8042C186.654 53.0015 186.92 51.7135 186.92 49.9402C186.92 48.6895 186.808 47.6955 186.584 46.9582C186.37 46.2115 186.057 45.6795 185.646 45.3622C185.245 45.0355 184.76 44.8722 184.19 44.8722C183.574 44.8722 183.028 45.0589 182.552 45.4322C182.086 45.8055 181.675 46.2675 181.32 46.8182V53.4542C181.638 53.9489 182.011 54.3315 182.44 54.6022C182.87 54.8729 183.36 55.0082 183.91 55.0082ZM200.574 42.1002C202.048 42.1002 203.299 42.4222 204.326 43.0662C205.352 43.7102 206.132 44.6202 206.664 45.7962C207.205 46.9629 207.476 48.3302 207.476 49.8982C207.476 51.5035 207.205 52.8942 206.664 54.0702C206.122 55.2462 205.338 56.1562 204.312 56.8002C203.285 57.4442 202.034 57.7662 200.56 57.7662C199.094 57.7662 197.844 57.4535 196.808 56.8282C195.781 56.1935 194.997 55.2929 194.456 54.1262C193.914 52.9502 193.644 51.5502 193.644 49.9262C193.644 48.3769 193.914 47.0142 194.456 45.8382C194.997 44.6622 195.786 43.7475 196.822 43.0942C197.858 42.4315 199.108 42.1002 200.574 42.1002ZM200.574 44.8862C199.538 44.8862 198.763 45.2922 198.25 46.1042C197.746 46.9162 197.494 48.1902 197.494 49.9262C197.494 51.6809 197.746 52.9642 198.25 53.7762C198.754 54.5789 199.524 54.9802 200.56 54.9802C201.596 54.9802 202.366 54.5789 202.87 53.7762C203.374 52.9642 203.626 51.6715 203.626 49.8982C203.626 48.1715 203.374 46.9069 202.87 46.1042C202.366 45.2922 201.6 44.8862 200.574 44.8862ZM214.899 42.5202V52.7962C214.899 53.5989 215.057 54.1635 215.375 54.4902C215.692 54.8169 216.154 54.9802 216.761 54.9802C217.339 54.9802 217.904 54.8075 218.455 54.4622C219.005 54.1075 219.453 53.6595 219.799 53.1182V42.5202H223.495V57.3462H220.275L220.079 55.5262C219.547 56.2542 218.865 56.8095 218.035 57.1922C217.204 57.5749 216.345 57.7662 215.459 57.7662C214.031 57.7662 212.962 57.3649 212.253 56.5622C211.553 55.7502 211.203 54.6442 211.203 53.2442V42.5202H214.899ZM240.788 56.5202C240.237 56.8842 239.57 57.1829 238.786 57.4162C238.002 57.6495 237.152 57.7662 236.238 57.7662C234.427 57.7662 233.064 57.2995 232.15 56.3662C231.235 55.4235 230.778 54.1729 230.778 52.6142V45.1382H227.558V42.5202H230.778V39.2582L234.474 38.8102V42.5202H239.374L238.996 45.1382H234.474V52.6002C234.474 53.3655 234.66 53.9255 235.034 54.2802C235.407 54.6349 236.009 54.8122 236.84 54.8122C237.372 54.8122 237.857 54.7515 238.296 54.6302C238.744 54.4995 239.15 54.3362 239.514 54.1402L240.788 56.5202ZM248.029 54.8682C248.029 54.3455 248.155 53.8649 248.407 53.4262C248.668 52.9875 249.018 52.6375 249.457 52.3762C249.895 52.1149 250.381 51.9842 250.913 51.9842C251.454 51.9842 251.944 52.1149 252.383 52.3762C252.821 52.6375 253.167 52.9875 253.419 53.4262C253.68 53.8649 253.811 54.3455 253.811 54.8682C253.811 55.3909 253.68 55.8762 253.419 56.3242C253.167 56.7629 252.821 57.1129 252.383 57.3742C251.944 57.6355 251.454 57.7662 250.913 57.7662C250.381 57.7662 249.895 57.6355 249.457 57.3742C249.018 57.1129 248.668 56.7629 248.407 56.3242C248.155 55.8762 248.029 55.3909 248.029 54.8682Z" fill="#95F450"/>
<rect x="1" y="1.1875" width="342.547" height="93.6809" rx="19" stroke="#95F450" stroke-width="2"/>
<path fill-rule="evenodd" clip-rule="evenodd" d="M42.6118 42.8677L36.5503 61.9902L34.1282 61.2452L40.7503 40.3677H67.0432V32.8677H47.6361L43.5553 27.8677H29V64.1177C29 66.1852 30.7069 67.8677 32.8043 67.8677H65.808C67.6138 67.8677 69.1837 66.6002 69.5388 64.8527L74 42.8677H42.6118Z" fill="#95F450"/>
<path d="M560.113 42.1002C561.419 42.1002 562.465 42.4222 563.249 43.0662C564.042 43.7009 564.616 44.6015 564.971 45.7682C565.335 46.9349 565.517 48.3115 565.517 49.8982C565.517 51.4195 565.297 52.7729 564.859 53.9582C564.42 55.1435 563.776 56.0769 562.927 56.7582C562.087 57.4302 561.051 57.7662 559.819 57.7662C558.307 57.7662 557.084 57.2295 556.151 56.1562V63.0582L552.455 63.4502V42.5202H555.703L555.899 44.3262C556.487 43.5609 557.145 43.0009 557.873 42.6462C558.601 42.2822 559.347 42.1002 560.113 42.1002ZM559.035 44.8722C558.409 44.8722 557.859 45.0589 557.383 45.4322C556.916 45.8055 556.505 46.2675 556.151 46.8182V53.4542C556.487 53.9582 556.869 54.3362 557.299 54.5882C557.728 54.8402 558.213 54.9662 558.755 54.9662C559.697 54.9662 560.416 54.5742 560.911 53.7902C561.415 52.9969 561.667 51.7135 561.667 49.9402C561.667 48.6895 561.564 47.6955 561.359 46.9582C561.163 46.2115 560.869 45.6795 560.477 45.3622C560.085 45.0355 559.604 44.8722 559.035 44.8722ZM569.384 57.3462V54.7842H571.47V45.0682H569.384V42.5202H574.284L574.97 45.9222C575.511 44.6622 576.192 43.7149 577.014 43.0802C577.835 42.4362 578.866 42.1142 580.108 42.1142C580.584 42.1142 581.004 42.1515 581.368 42.2262C581.741 42.3009 582.096 42.3989 582.432 42.5202L581.326 45.6282C581.036 45.5535 580.761 45.4975 580.5 45.4602C580.238 45.4135 579.944 45.3902 579.618 45.3902C578.591 45.3902 577.695 45.7915 576.93 46.5942C576.174 47.3875 575.586 48.4655 575.166 49.8282V54.7842H578.12V57.3462H569.384ZM579.31 48.3022V44.3682L579.814 42.5202H582.432L581.774 48.3022H579.31ZM592.193 42.1002C593.667 42.1002 594.918 42.4222 595.945 43.0662C596.971 43.7102 597.751 44.6202 598.283 45.7962C598.824 46.9629 599.095 48.3302 599.095 49.8982C599.095 51.5035 598.824 52.8942 598.283 54.0702C597.741 55.2462 596.957 56.1562 595.931 56.8002C594.904 57.4442 593.653 57.7662 592.179 57.7662C590.713 57.7662 589.463 57.4535 588.427 56.8282C587.4 56.1935 586.616 55.2929 586.075 54.1262C585.533 52.9502 585.263 51.5502 585.263 49.9262C585.263 48.3769 585.533 47.0142 586.075 45.8382C586.616 44.6622 587.405 43.7475 588.441 43.0942C589.477 42.4315 590.727 42.1002 592.193 42.1002ZM592.193 44.8862C591.157 44.8862 590.382 45.2922 589.869 46.1042C589.365 46.9162 589.113 48.1902 589.113 49.9262C589.113 51.6809 589.365 52.9642 589.869 53.7762C590.373 54.5789 591.143 54.9802 592.179 54.9802C593.215 54.9802 593.985 54.5789 594.489 53.7762C594.993 52.9642 595.245 51.6715 595.245 49.8982C595.245 48.1715 594.993 46.9069 594.489 46.1042C593.985 45.2922 593.219 44.8862 592.193 44.8862ZM613.532 42.5202V53.7202C613.532 55.6895 613.14 57.3182 612.356 58.6062C611.581 59.8942 610.438 60.9209 608.926 61.6862C607.414 62.4515 605.561 63.0395 603.368 63.4502L602.766 60.6222C604.259 60.3142 605.528 59.9082 606.574 59.4042C607.628 58.9002 608.436 58.2142 608.996 57.3462C609.556 56.4782 609.836 55.3489 609.836 53.9582V45.1382H604.208V42.5202H613.532ZM610.9 35.0442C611.572 35.0442 612.122 35.2542 612.552 35.6742C612.981 36.0942 613.196 36.6169 613.196 37.2422C613.196 37.8675 612.981 38.3949 612.552 38.8242C612.122 39.2442 611.572 39.4542 610.9 39.4542C610.218 39.4542 609.663 39.2442 609.234 38.8242C608.804 38.3949 608.59 37.8675 608.59 37.2422C608.59 36.6169 608.804 36.0942 609.234 35.6742C609.663 35.2542 610.218 35.0442 610.9 35.0442ZM622.761 51.0602C622.835 51.9842 623.045 52.7355 623.391 53.3142C623.745 53.8929 624.198 54.3175 624.749 54.5882C625.299 54.8589 625.911 54.9942 626.583 54.9942C627.292 54.9942 627.959 54.8822 628.585 54.6582C629.21 54.4342 629.826 54.1215 630.433 53.7202L631.973 55.8342C631.282 56.4129 630.456 56.8795 629.495 57.2342C628.543 57.5889 627.493 57.7662 626.345 57.7662C624.739 57.7662 623.386 57.4349 622.285 56.7722C621.193 56.1095 620.367 55.1902 619.807 54.0142C619.247 52.8382 618.967 51.4849 618.967 49.9542C618.967 48.4795 619.242 47.1495 619.793 45.9642C620.343 44.7789 621.137 43.8409 622.173 43.1502C623.209 42.4502 624.459 42.1002 625.925 42.1002C627.287 42.1002 628.463 42.3989 629.453 42.9962C630.442 43.5935 631.207 44.4522 631.749 45.5722C632.29 46.6829 632.561 48.0222 632.561 49.5902C632.561 49.8422 632.551 50.0989 632.533 50.3602C632.523 50.6215 632.509 50.8549 632.491 51.0602H622.761ZM625.939 44.7042C625.043 44.7042 624.305 45.0262 623.727 45.6702C623.157 46.3049 622.821 47.3129 622.719 48.6942H628.963C628.944 47.4435 628.683 46.4682 628.179 45.7682C627.684 45.0589 626.937 44.7042 625.939 44.7042ZM643.862 54.7982C644.515 54.7982 645.127 54.6769 645.696 54.4342C646.275 54.1915 646.83 53.8835 647.362 53.5102L649.042 55.8762C648.389 56.4269 647.6 56.8795 646.676 57.2342C645.752 57.5889 644.763 57.7662 643.708 57.7662C642.159 57.7662 640.829 57.4442 639.718 56.8002C638.617 56.1469 637.767 55.2415 637.17 54.0842C636.582 52.9175 636.288 51.5642 636.288 50.0242C636.288 48.5029 636.587 47.1449 637.184 45.9502C637.791 44.7462 638.649 43.8035 639.76 43.1222C640.88 42.4409 642.215 42.1002 643.764 42.1002C644.828 42.1002 645.789 42.2542 646.648 42.5622C647.516 42.8609 648.309 43.3089 649.028 43.9062L647.39 46.1742C646.839 45.7915 646.27 45.5022 645.682 45.3062C645.103 45.1009 644.501 44.9982 643.876 44.9982C642.784 44.9982 641.893 45.3949 641.202 46.1882C640.521 46.9722 640.18 48.2509 640.18 50.0242C640.18 51.1909 640.339 52.1242 640.656 52.8242C640.983 53.5242 641.421 54.0282 641.972 54.3362C642.532 54.6442 643.162 54.7982 643.862 54.7982ZM665.985 56.5202C665.434 56.8842 664.767 57.1829 663.983 57.4162C663.199 57.6495 662.35 57.7662 661.435 57.7662C659.624 57.7662 658.262 57.2995 657.347 56.3662C656.432 55.4235 655.975 54.1729 655.975 52.6142V45.1382H652.755V42.5202H655.975V39.2582L659.671 38.8102V42.5202H664.571L664.193 45.1382H659.671V52.6002C659.671 53.3655 659.858 53.9255 660.231 54.2802C660.604 54.6349 661.206 54.8122 662.037 54.8122C662.569 54.8122 663.054 54.7515 663.493 54.6302C663.941 54.4995 664.347 54.3362 664.711 54.1402L665.985 56.5202ZM675.62 55.0362C676.488 55.0362 677.183 54.8869 677.706 54.5882C678.238 54.2802 678.504 53.8509 678.504 53.3002C678.504 52.9362 678.415 52.6282 678.238 52.3762C678.07 52.1242 677.734 51.8909 677.23 51.6762C676.726 51.4522 675.97 51.2049 674.962 50.9342C674.01 50.6915 673.175 50.3929 672.456 50.0382C671.747 49.6742 671.191 49.2075 670.79 48.6382C670.398 48.0689 670.202 47.3502 670.202 46.4822C670.202 45.6142 670.445 44.8535 670.93 44.2002C671.415 43.5375 672.115 43.0242 673.03 42.6602C673.954 42.2869 675.065 42.1002 676.362 42.1002C677.631 42.1002 678.742 42.2682 679.694 42.6042C680.646 42.9309 681.463 43.3415 682.144 43.8362L680.632 46.0902C680.035 45.7075 679.386 45.3995 678.686 45.1662C677.995 44.9235 677.249 44.8022 676.446 44.8022C675.578 44.8022 674.943 44.9282 674.542 45.1802C674.15 45.4322 673.954 45.7822 673.954 46.2302C673.954 46.5475 674.052 46.8182 674.248 47.0422C674.453 47.2569 674.817 47.4669 675.34 47.6722C675.872 47.8682 676.628 48.1062 677.608 48.3862C678.569 48.6475 679.405 48.9555 680.114 49.3102C680.833 49.6649 681.388 50.1362 681.78 50.7242C682.172 51.3122 682.368 52.0822 682.368 53.0342C682.368 54.1075 682.055 54.9942 681.43 55.6942C680.805 56.3942 679.979 56.9169 678.952 57.2622C677.935 57.5982 676.829 57.7662 675.634 57.7662C674.234 57.7662 673.011 57.5655 671.966 57.1642C670.921 56.7629 670.034 56.2449 669.306 55.6102L671.224 53.4542C671.803 53.9115 672.461 54.2895 673.198 54.5882C673.945 54.8869 674.752 55.0362 675.62 55.0362ZM690.015 54.8682C690.015 54.3455 690.141 53.8649 690.393 53.4262C690.654 52.9875 691.004 52.6375 691.443 52.3762C691.882 52.1149 692.367 51.9842 692.899 51.9842C693.44 51.9842 693.93 52.1149 694.369 52.3762C694.808 52.6375 695.153 52.9875 695.405 53.4262C695.666 53.8649 695.797 54.3455 695.797 54.8682C695.797 55.3909 695.666 55.8762 695.405 56.3242C695.153 56.7629 694.808 57.1129 694.369 57.3742C693.93 57.6355 693.44 57.7662 692.899 57.7662C692.367 57.7662 691.882 57.6355 691.443 57.3742C691.004 57.1129 690.654 56.7629 690.393 56.3242C690.141 55.8762 690.015 55.3909 690.015 54.8682Z" fill="#95F450"/>
<rect x="417.803" y="1.1875" width="342.547" height="93.6809" rx="19" stroke="#95F450" stroke-width="2"/>
<path fill-rule="evenodd" clip-rule="evenodd" d="M459.415 42.8677L453.353 61.9902L450.931 61.2452L457.553 40.3677H483.846V32.8677H464.439L460.358 27.8677H445.803V64.1177C445.803 66.1852 447.51 67.8677 449.607 67.8677H482.611C484.417 67.8677 485.986 66.6002 486.342 64.8527L490.803 42.8677H459.415Z" fill="#95F450"/>
<path d="M1006.53 44.1862C1007.03 43.5329 1007.61 43.0242 1008.28 42.6602C1008.96 42.2869 1009.7 42.1002 1010.48 42.1002C1011.78 42.1002 1012.83 42.4222 1013.63 43.0662C1014.44 43.7009 1015.04 44.6015 1015.41 45.7682C1015.79 46.9349 1015.98 48.3115 1015.98 49.8982C1015.98 51.4195 1015.76 52.7729 1015.31 53.9582C1014.86 55.1435 1014.2 56.0769 1013.31 56.7582C1012.43 57.4302 1011.35 57.7662 1010.07 57.7662C1008.47 57.7662 1007.2 57.1549 1006.28 55.9322L1006.11 57.3462H1002.84V36.5982L1006.53 36.2062V44.1862ZM1009.12 55.0082C1010.07 55.0082 1010.8 54.6069 1011.33 53.8042C1011.87 53.0015 1012.13 51.7135 1012.13 49.9402C1012.13 48.6895 1012.02 47.6955 1011.8 46.9582C1011.58 46.2115 1011.27 45.6795 1010.86 45.3622C1010.46 45.0355 1009.97 44.8722 1009.4 44.8722C1008.79 44.8722 1008.24 45.0589 1007.76 45.4322C1007.3 45.8055 1006.89 46.2675 1006.53 46.8182V53.4542C1006.85 53.9489 1007.22 54.3315 1007.65 54.6022C1008.08 54.8729 1008.57 55.0082 1009.12 55.0082ZM1026.68 36.5982V53.0342C1026.68 53.6782 1026.87 54.1355 1027.24 54.4062C1027.62 54.6769 1028.14 54.8122 1028.78 54.8122C1029.18 54.8122 1029.57 54.7702 1029.94 54.6862C1030.32 54.5929 1030.67 54.4809 1031.01 54.3502L1031.92 56.8702C1031.45 57.1035 1030.88 57.3089 1030.21 57.4862C1029.55 57.6729 1028.78 57.7662 1027.9 57.7662C1026.28 57.7662 1025.06 57.3042 1024.23 56.3802C1023.4 55.4562 1022.99 54.2102 1022.99 52.6422V39.2162H1018.55V36.5982H1026.68ZM1042.57 42.1002C1044.05 42.1002 1045.3 42.4222 1046.33 43.0662C1047.35 43.7102 1048.13 44.6202 1048.66 45.7962C1049.21 46.9629 1049.48 48.3302 1049.48 49.8982C1049.48 51.5035 1049.21 52.8942 1048.66 54.0702C1048.12 55.2462 1047.34 56.1562 1046.31 56.8002C1045.29 57.4442 1044.04 57.7662 1042.56 57.7662C1041.1 57.7662 1039.84 57.4535 1038.81 56.8282C1037.78 56.1935 1037 55.2929 1036.46 54.1262C1035.92 52.9502 1035.64 51.5502 1035.64 49.9262C1035.64 48.3769 1035.92 47.0142 1036.46 45.8382C1037 44.6622 1037.79 43.7475 1038.82 43.0942C1039.86 42.4315 1041.11 42.1002 1042.57 42.1002ZM1042.57 44.8862C1041.54 44.8862 1040.76 45.2922 1040.25 46.1042C1039.75 46.9162 1039.49 48.1902 1039.49 49.9262C1039.49 51.6809 1039.75 52.9642 1040.25 53.7762C1040.75 54.5789 1041.52 54.9802 1042.56 54.9802C1043.6 54.9802 1044.37 54.5789 1044.87 53.7762C1045.37 52.9642 1045.63 51.6715 1045.63 49.8982C1045.63 48.1715 1045.37 46.9069 1044.87 46.1042C1044.37 45.2922 1043.6 44.8862 1042.57 44.8862ZM1065.99 40.4342L1066.91 43.3182C1066.35 43.5142 1065.72 43.6542 1065.02 43.7382C1064.32 43.8129 1063.52 43.8502 1062.61 43.8502C1063.52 44.2422 1064.2 44.7415 1064.67 45.3482C1065.15 45.9455 1065.38 46.7062 1065.38 47.6302C1065.38 48.5915 1065.14 49.4502 1064.64 50.2062C1064.16 50.9622 1063.46 51.5549 1062.56 51.9842C1061.66 52.4135 1060.59 52.6282 1059.35 52.6282C1058.97 52.6282 1058.63 52.6095 1058.33 52.5722C1058.03 52.5349 1057.74 52.4835 1057.46 52.4182C1057.27 52.5209 1057.13 52.6702 1057.03 52.8662C1056.92 53.0622 1056.87 53.2629 1056.87 53.4682C1056.87 53.7482 1056.98 53.9909 1057.19 54.1962C1057.42 54.3922 1057.89 54.4902 1058.62 54.4902H1061.14C1062.23 54.4902 1063.19 54.6769 1064.01 55.0502C1064.84 55.4142 1065.49 55.9089 1065.94 56.5342C1066.41 57.1595 1066.64 57.8782 1066.64 58.6902C1066.64 60.1835 1065.99 61.3502 1064.7 62.1902C1063.4 63.0302 1061.51 63.4502 1059.01 63.4502C1057.23 63.4502 1055.84 63.2682 1054.84 62.9042C1053.85 62.5402 1053.16 62.0082 1052.76 61.3082C1052.35 60.6175 1052.15 59.7822 1052.15 58.8022H1055.44C1055.44 59.2782 1055.54 59.6702 1055.72 59.9782C1055.92 60.2862 1056.28 60.5149 1056.8 60.6642C1057.33 60.8135 1058.09 60.8882 1059.08 60.8882C1060.07 60.8882 1060.85 60.8089 1061.41 60.6502C1061.98 60.4915 1062.38 60.2629 1062.61 59.9642C1062.84 59.6749 1062.96 59.3342 1062.96 58.9422C1062.96 58.4102 1062.74 57.9949 1062.29 57.6962C1061.84 57.3975 1061.21 57.2482 1060.39 57.2482H1057.94C1056.44 57.2482 1055.35 56.9589 1054.67 56.3802C1053.99 55.7922 1053.65 55.1155 1053.65 54.3502C1053.65 53.8275 1053.79 53.3282 1054.07 52.8522C1054.36 52.3669 1054.77 51.9562 1055.3 51.6202C1054.39 51.1349 1053.73 50.5562 1053.32 49.8842C1052.91 49.2029 1052.71 48.3815 1052.71 47.4202C1052.71 46.3469 1052.98 45.4135 1053.53 44.6202C1054.07 43.8269 1054.82 43.2109 1055.78 42.7722C1056.74 42.3335 1057.85 42.1142 1059.1 42.1142C1060.25 42.1235 1061.22 42.0535 1062.02 41.9042C1062.84 41.7549 1063.55 41.5495 1064.17 41.2882C1064.79 41.0269 1065.4 40.7422 1065.99 40.4342ZM1059.17 44.5782C1058.29 44.5782 1057.62 44.8349 1057.15 45.3482C1056.69 45.8615 1056.47 46.5429 1056.47 47.3922C1056.47 48.2695 1056.7 48.9649 1057.18 49.4782C1057.66 49.9915 1058.32 50.2482 1059.18 50.2482C1060.03 50.2482 1060.67 50.0009 1061.11 49.5062C1061.56 49.0022 1061.79 48.2835 1061.79 47.3502C1061.79 46.4169 1061.56 45.7215 1061.11 45.2642C1060.67 44.8069 1060.03 44.5782 1059.17 44.5782ZM1073.24 54.8682C1073.24 54.3455 1073.37 53.8649 1073.62 53.4262C1073.88 52.9875 1074.23 52.6375 1074.67 52.3762C1075.11 52.1149 1075.59 51.9842 1076.12 51.9842C1076.67 51.9842 1077.16 52.1149 1077.59 52.3762C1078.03 52.6375 1078.38 52.9875 1078.63 53.4262C1078.89 53.8649 1079.02 54.3455 1079.02 54.8682C1079.02 55.3909 1078.89 55.8762 1078.63 56.3242C1078.38 56.7629 1078.03 57.1129 1077.59 57.3742C1077.16 57.6355 1076.67 57.7662 1076.12 57.7662C1075.59 57.7662 1075.11 57.6355 1074.67 57.3742C1074.23 57.1129 1073.88 56.7629 1073.62 56.3242C1073.37 55.8762 1073.24 55.3909 1073.24 54.8682Z" fill="#95F450"/>
<rect x="834.606" y="1.1875" width="342.547" height="93.6809" rx="19" stroke="#95F450" stroke-width="2"/>
<path fill-rule="evenodd" clip-rule="evenodd" d="M876.218 42.8677L870.157 61.9902L867.735 61.2452L874.357 40.3677H900.65V32.8677H881.243L877.162 27.8677H862.606V64.1177C862.606 66.1852 864.313 67.8677 866.411 67.8677H899.414C901.22 67.8677 902.79 66.6002 903.145 64.8527L907.606 42.8677H876.218Z" fill="#95F450"/>
</svg>
