<svg width="720" height="159" viewBox="0 0 720 159" fill="none" xmlns="http://www.w3.org/2000/svg">
<rect x="247" y="36" width="87" height="87" rx="19" stroke="white" stroke-width="2"/>
<path d="M281.601 109.166C266.767 113.616 266.767 101.75 260.834 100.266M302.367 118.066V106.585C302.479 105.171 302.287 103.749 301.807 102.414C301.326 101.079 300.566 99.8613 299.579 98.8425C308.894 97.8042 318.684 94.2738 318.684 78.0758C318.683 73.9339 317.09 69.9507 314.234 66.9508C315.586 63.3271 315.491 59.3216 313.967 55.7665C313.967 55.7665 310.466 54.7282 302.367 60.1572C295.568 58.3143 288.4 58.3143 281.601 60.1572C273.502 54.7282 270.001 55.7665 270.001 55.7665C268.477 59.3216 268.382 63.3271 269.734 66.9508C266.857 69.973 265.262 73.9921 265.284 78.1648C265.284 94.2442 275.074 97.7745 284.389 98.9315C283.413 99.9401 282.661 101.143 282.18 102.462C281.7 103.78 281.502 105.185 281.601 106.585V118.066" stroke="white" stroke-width="4" stroke-linecap="round" stroke-linejoin="round"/>
<rect x="386" y="36" width="87" height="87" rx="19" stroke="white" stroke-width="2"/>
<path d="M441.367 67.633C446.088 67.633 450.616 69.5084 453.954 72.8465C457.292 76.1847 459.167 80.7122 459.167 85.433V106.2H447.301V85.433C447.301 83.8594 446.676 82.3502 445.563 81.2375C444.45 80.1248 442.941 79.4997 441.367 79.4997C439.794 79.4997 438.285 80.1248 437.172 81.2375C436.059 82.3502 435.434 83.8594 435.434 85.433V106.2H423.567V85.433C423.567 80.7122 425.443 76.1847 428.781 72.8465C432.119 69.5084 436.646 67.633 441.367 67.633Z" stroke="white" stroke-width="4" stroke-linecap="round" stroke-linejoin="round"/>
<path d="M411.701 70.5997H399.834V106.2H411.701V70.5997Z" stroke="white" stroke-width="4" stroke-linecap="round" stroke-linejoin="round"/>
<path d="M405.767 61.6997C409.044 61.6997 411.701 59.0432 411.701 55.7663C411.701 52.4895 409.044 49.833 405.767 49.833C402.49 49.833 399.834 52.4895 399.834 55.7663C399.834 59.0432 402.49 61.6997 405.767 61.6997Z" stroke="white" stroke-width="4" stroke-linecap="round" stroke-linejoin="round"/>
</svg>
