<svg viewBox="0 0 345 96" fill="none" xmlns="http://www.w3.org/2000/svg">
<path d="M172.665 53.4402C172.665 54.0095 172.749 54.4249 172.917 54.6862C173.085 54.9382 173.356 55.1295 173.729 55.2602L172.931 57.7382C172.138 57.6542 171.461 57.4582 170.901 57.1502C170.351 56.8329 169.926 56.3615 169.627 55.7362C169.067 56.4175 168.358 56.9262 167.499 57.2622C166.65 57.5982 165.759 57.7662 164.825 57.7662C163.313 57.7662 162.114 57.3369 161.227 56.4782C160.341 55.6195 159.897 54.5042 159.897 53.1322C159.897 51.5549 160.513 50.3415 161.745 49.4922C162.987 48.6335 164.741 48.2042 167.009 48.2042H169.081V47.4062C169.081 46.5289 168.811 45.8942 168.269 45.5022C167.728 45.1009 166.949 44.9002 165.931 44.9002C165.455 44.9002 164.858 44.9655 164.139 45.0962C163.43 45.2175 162.697 45.4089 161.941 45.6702L161.059 43.1362C162.002 42.7815 162.949 42.5202 163.901 42.3522C164.863 42.1842 165.735 42.1002 166.519 42.1002C168.601 42.1002 170.145 42.5435 171.153 43.4302C172.161 44.3075 172.665 45.5535 172.665 47.1682V53.4402ZM166.029 55.0922C166.589 55.0922 167.154 54.9335 167.723 54.6162C168.302 54.2989 168.755 53.8555 169.081 53.2862V50.4022H167.625C166.253 50.4022 165.259 50.6215 164.643 51.0602C164.037 51.4989 163.733 52.1195 163.733 52.9222C163.733 53.6129 163.929 54.1495 164.321 54.5322C164.713 54.9055 165.283 55.0922 166.029 55.0922ZM181.32 44.1862C181.815 43.5329 182.398 43.0242 183.07 42.6602C183.752 42.2869 184.484 42.1002 185.268 42.1002C186.566 42.1002 187.616 42.4222 188.418 43.0662C189.23 43.7009 189.823 44.6015 190.196 45.7682C190.579 46.9349 190.77 48.3115 190.77 49.8982C190.77 51.4195 190.546 52.7729 190.098 53.9582C189.65 55.1435 188.983 56.0769 188.096 56.7582C187.219 57.4302 186.141 57.7662 184.862 57.7662C183.257 57.7662 181.992 57.1549 181.068 55.9322L180.9 57.3462H177.624V36.5982L181.32 36.2062V44.1862ZM183.91 55.0082C184.853 55.0082 185.59 54.6069 186.122 53.8042C186.654 53.0015 186.92 51.7135 186.92 49.9402C186.92 48.6895 186.808 47.6955 186.584 46.9582C186.37 46.2115 186.057 45.6795 185.646 45.3622C185.245 45.0355 184.76 44.8722 184.19 44.8722C183.574 44.8722 183.028 45.0589 182.552 45.4322C182.086 45.8055 181.675 46.2675 181.32 46.8182V53.4542C181.638 53.9489 182.011 54.3315 182.44 54.6022C182.87 54.8729 183.36 55.0082 183.91 55.0082ZM200.574 42.1002C202.048 42.1002 203.299 42.4222 204.326 43.0662C205.352 43.7102 206.132 44.6202 206.664 45.7962C207.205 46.9629 207.476 48.3302 207.476 49.8982C207.476 51.5035 207.205 52.8942 206.664 54.0702C206.122 55.2462 205.338 56.1562 204.312 56.8002C203.285 57.4442 202.034 57.7662 200.56 57.7662C199.094 57.7662 197.844 57.4535 196.808 56.8282C195.781 56.1935 194.997 55.2929 194.456 54.1262C193.914 52.9502 193.644 51.5502 193.644 49.9262C193.644 48.3769 193.914 47.0142 194.456 45.8382C194.997 44.6622 195.786 43.7475 196.822 43.0942C197.858 42.4315 199.108 42.1002 200.574 42.1002ZM200.574 44.8862C199.538 44.8862 198.763 45.2922 198.25 46.1042C197.746 46.9162 197.494 48.1902 197.494 49.9262C197.494 51.6809 197.746 52.9642 198.25 53.7762C198.754 54.5789 199.524 54.9802 200.56 54.9802C201.596 54.9802 202.366 54.5789 202.87 53.7762C203.374 52.9642 203.626 51.6715 203.626 49.8982C203.626 48.1715 203.374 46.9069 202.87 46.1042C202.366 45.2922 201.6 44.8862 200.574 44.8862ZM214.899 42.5202V52.7962C214.899 53.5989 215.057 54.1635 215.375 54.4902C215.692 54.8169 216.154 54.9802 216.761 54.9802C217.339 54.9802 217.904 54.8075 218.455 54.4622C219.005 54.1075 219.453 53.6595 219.799 53.1182V42.5202H223.495V57.3462H220.275L220.079 55.5262C219.547 56.2542 218.865 56.8095 218.035 57.1922C217.204 57.5749 216.345 57.7662 215.459 57.7662C214.031 57.7662 212.962 57.3649 212.253 56.5622C211.553 55.7502 211.203 54.6442 211.203 53.2442V42.5202H214.899ZM240.788 56.5202C240.237 56.8842 239.57 57.1829 238.786 57.4162C238.002 57.6495 237.152 57.7662 236.238 57.7662C234.427 57.7662 233.064 57.2995 232.15 56.3662C231.235 55.4235 230.778 54.1729 230.778 52.6142V45.1382H227.558V42.5202H230.778V39.2582L234.474 38.8102V42.5202H239.374L238.996 45.1382H234.474V52.6002C234.474 53.3655 234.66 53.9255 235.034 54.2802C235.407 54.6349 236.009 54.8122 236.84 54.8122C237.372 54.8122 237.857 54.7515 238.296 54.6302C238.744 54.4995 239.15 54.3362 239.514 54.1402L240.788 56.5202ZM248.029 54.8682C248.029 54.3455 248.155 53.8649 248.407 53.4262C248.668 52.9875 249.018 52.6375 249.457 52.3762C249.895 52.1149 250.381 51.9842 250.913 51.9842C251.454 51.9842 251.944 52.1149 252.383 52.3762C252.821 52.6375 253.167 52.9875 253.419 53.4262C253.68 53.8649 253.811 54.3455 253.811 54.8682C253.811 55.3909 253.68 55.8762 253.419 56.3242C253.167 56.7629 252.821 57.1129 252.383 57.3742C251.944 57.6355 251.454 57.7662 250.913 57.7662C250.381 57.7662 249.895 57.6355 249.457 57.3742C249.018 57.1129 248.668 56.7629 248.407 56.3242C248.155 55.8762 248.029 55.3909 248.029 54.8682Z" fill="#95F450"/>
<rect x="1" y="1.1875" width="342.547" height="93.6809" rx="19" stroke="#95F450" stroke-width="2"/>
<path fill-rule="evenodd" clip-rule="evenodd" d="M42.6118 42.8677L36.5503 61.9902L34.1282 61.2452L40.7503 40.3677H67.0432V32.8677H47.6361L43.5553 27.8677H29V64.1177C29 66.1852 30.7069 67.8677 32.8043 67.8677H65.808C67.6138 67.8677 69.1837 66.6002 69.5388 64.8527L74 42.8677H42.6118Z" fill="#95F450"/>
</svg>
