<svg viewBox="0 0 346 96" fill="none" xmlns="http://www.w3.org/2000/svg">
<path d="M173.532 44.1862C174.027 43.5329 174.61 43.0242 175.282 42.6602C175.964 42.2869 176.696 42.1002 177.48 42.1002C178.778 42.1002 179.828 42.4222 180.63 43.0662C181.442 43.7009 182.035 44.6015 182.408 45.7682C182.791 46.9349 182.982 48.3115 182.982 49.8982C182.982 51.4195 182.758 52.7729 182.31 53.9582C181.862 55.1435 181.195 56.0769 180.308 56.7582C179.431 57.4302 178.353 57.7662 177.074 57.7662C175.469 57.7662 174.204 57.1549 173.28 55.9322L173.112 57.3462H169.836V36.5982L173.532 36.2062V44.1862ZM176.122 55.0082C177.065 55.0082 177.802 54.6069 178.334 53.8042C178.866 53.0015 179.132 51.7135 179.132 49.9402C179.132 48.6895 179.02 47.6955 178.796 46.9582C178.582 46.2115 178.269 45.6795 177.858 45.3622C177.457 45.0355 176.972 44.8722 176.402 44.8722C175.786 44.8722 175.24 45.0589 174.764 45.4322C174.298 45.8055 173.887 46.2675 173.532 46.8182V53.4542C173.85 53.9489 174.223 54.3315 174.652 54.6022C175.082 54.8729 175.572 55.0082 176.122 55.0082ZM193.681 36.5982V53.0342C193.681 53.6782 193.868 54.1355 194.241 54.4062C194.624 54.6769 195.137 54.8122 195.781 54.8122C196.183 54.8122 196.57 54.7702 196.943 54.6862C197.317 54.5929 197.671 54.4809 198.007 54.3502L198.917 56.8702C198.451 57.1035 197.881 57.3089 197.209 57.4862C196.547 57.6729 195.777 57.7662 194.899 57.7662C193.285 57.7662 192.062 57.3042 191.231 56.3802C190.401 55.4562 189.985 54.2102 189.985 52.6422V39.2162H185.547V36.5982H193.681ZM209.575 42.1002C211.049 42.1002 212.3 42.4222 213.327 43.0662C214.353 43.7102 215.133 44.6202 215.665 45.7962C216.206 46.9629 216.477 48.3302 216.477 49.8982C216.477 51.5035 216.206 52.8942 215.665 54.0702C215.123 55.2462 214.339 56.1562 213.313 56.8002C212.286 57.4442 211.035 57.7662 209.561 57.7662C208.095 57.7662 206.845 57.4535 205.809 56.8282C204.782 56.1935 203.998 55.2929 203.457 54.1262C202.915 52.9502 202.645 51.5502 202.645 49.9262C202.645 48.3769 202.915 47.0142 203.457 45.8382C203.998 44.6622 204.787 43.7475 205.823 43.0942C206.859 42.4315 208.109 42.1002 209.575 42.1002ZM209.575 44.8862C208.539 44.8862 207.764 45.2922 207.251 46.1042C206.747 46.9162 206.495 48.1902 206.495 49.9262C206.495 51.6809 206.747 52.9642 207.251 53.7762C207.755 54.5789 208.525 54.9802 209.561 54.9802C210.597 54.9802 211.367 54.5789 211.871 53.7762C212.375 52.9642 212.627 51.6715 212.627 49.8982C212.627 48.1715 212.375 46.9069 211.871 46.1042C211.367 45.2922 210.601 44.8862 209.575 44.8862ZM232.986 40.4342L233.91 43.3182C233.35 43.5142 232.72 43.6542 232.02 43.7382C231.32 43.8129 230.517 43.8502 229.612 43.8502C230.517 44.2422 231.203 44.7415 231.67 45.3482C232.146 45.9455 232.384 46.7062 232.384 47.6302C232.384 48.5915 232.136 49.4502 231.642 50.2062C231.156 50.9622 230.461 51.5549 229.556 51.9842C228.66 52.4135 227.591 52.6282 226.35 52.6282C225.967 52.6282 225.626 52.6095 225.328 52.5722C225.029 52.5349 224.74 52.4835 224.46 52.4182C224.273 52.5209 224.128 52.6702 224.026 52.8662C223.923 53.0622 223.872 53.2629 223.872 53.4682C223.872 53.7482 223.979 53.9909 224.194 54.1962C224.418 54.3922 224.894 54.4902 225.622 54.4902H228.142C229.234 54.4902 230.19 54.6769 231.012 55.0502C231.842 55.4142 232.486 55.9089 232.944 56.5342C233.41 57.1595 233.644 57.8782 233.644 58.6902C233.644 60.1835 232.995 61.3502 231.698 62.1902C230.4 63.0302 228.506 63.4502 226.014 63.4502C224.231 63.4502 222.84 63.2682 221.842 62.9042C220.852 62.5402 220.157 62.0082 219.756 61.3082C219.354 60.6175 219.154 59.7822 219.154 58.8022H222.444C222.444 59.2782 222.537 59.6702 222.724 59.9782C222.92 60.2862 223.279 60.5149 223.802 60.6642C224.334 60.8135 225.094 60.8882 226.084 60.8882C227.073 60.8882 227.848 60.8089 228.408 60.6502C228.977 60.4915 229.378 60.2629 229.612 59.9642C229.845 59.6749 229.962 59.3342 229.962 58.9422C229.962 58.4102 229.738 57.9949 229.29 57.6962C228.842 57.3975 228.207 57.2482 227.386 57.2482H224.936C223.442 57.2482 222.355 56.9589 221.674 56.3802C220.992 55.7922 220.652 55.1155 220.652 54.3502C220.652 53.8275 220.792 53.3282 221.072 52.8522C221.361 52.3669 221.772 51.9562 222.304 51.6202C221.389 51.1349 220.726 50.5562 220.316 49.8842C219.914 49.2029 219.714 48.3815 219.714 47.4202C219.714 46.3469 219.984 45.4135 220.526 44.6202C221.067 43.8269 221.818 43.2109 222.78 42.7722C223.741 42.3335 224.847 42.1142 226.098 42.1142C227.246 42.1235 228.221 42.0535 229.024 41.9042C229.836 41.7549 230.55 41.5495 231.166 41.2882C231.791 41.0269 232.398 40.7422 232.986 40.4342ZM226.168 44.5782C225.29 44.5782 224.618 44.8349 224.152 45.3482C223.694 45.8615 223.466 46.5429 223.466 47.3922C223.466 48.2695 223.704 48.9649 224.18 49.4782C224.656 49.9915 225.323 50.2482 226.182 50.2482C227.031 50.2482 227.675 50.0009 228.114 49.5062C228.562 49.0022 228.786 48.2835 228.786 47.3502C228.786 46.4169 228.562 45.7215 228.114 45.2642C227.675 44.8069 227.026 44.5782 226.168 44.5782ZM240.241 54.8682C240.241 54.3455 240.367 53.8649 240.619 53.4262C240.88 52.9875 241.23 52.6375 241.669 52.3762C242.107 52.1149 242.593 51.9842 243.125 51.9842C243.666 51.9842 244.156 52.1149 244.595 52.3762C245.033 52.6375 245.379 52.9875 245.631 53.4262C245.892 53.8649 246.023 54.3455 246.023 54.8682C246.023 55.3909 245.892 55.8762 245.631 56.3242C245.379 56.7629 245.033 57.1129 244.595 57.3742C244.156 57.6355 243.666 57.7662 243.125 57.7662C242.593 57.7662 242.107 57.6355 241.669 57.3742C241.23 57.1129 240.88 56.7629 240.619 56.3242C240.367 55.8762 240.241 55.3909 240.241 54.8682Z" fill="#95F450"/>
<rect x="1.60645" y="1.1875" width="342.547" height="93.6809" rx="19" stroke="#95F450" stroke-width="2"/>
<path fill-rule="evenodd" clip-rule="evenodd" d="M43.2183 42.8677L37.1568 61.9902L34.7347 61.2452L41.3567 40.3677H67.6496V32.8677H48.2425L44.1618 27.8677H29.6064V64.1177C29.6064 66.1852 31.3133 67.8677 33.4108 67.8677H66.4145C68.2203 67.8677 69.7902 66.6002 70.1452 64.8527L74.6064 42.8677H43.2183Z" fill="#95F450"/>
</svg>
