<svg viewBox="0 0 346 96" fill="none" xmlns="http://www.w3.org/2000/svg">
<path d="M144.113 42.1002C145.419 42.1002 146.465 42.4222 147.249 43.0662C148.042 43.7009 148.616 44.6015 148.971 45.7682C149.335 46.9349 149.517 48.3115 149.517 49.8982C149.517 51.4195 149.297 52.7729 148.859 53.9582C148.42 55.1435 147.776 56.0769 146.927 56.7582C146.087 57.4302 145.051 57.7662 143.819 57.7662C142.307 57.7662 141.084 57.2295 140.151 56.1562V63.0582L136.455 63.4502V42.5202H139.703L139.899 44.3262C140.487 43.5609 141.145 43.0009 141.873 42.6462C142.601 42.2822 143.347 42.1002 144.113 42.1002ZM143.035 44.8722C142.409 44.8722 141.859 45.0589 141.383 45.4322C140.916 45.8055 140.505 46.2675 140.151 46.8182V53.4542C140.487 53.9582 140.869 54.3362 141.299 54.5882C141.728 54.8402 142.213 54.9662 142.755 54.9662C143.697 54.9662 144.416 54.5742 144.911 53.7902C145.415 52.9969 145.667 51.7135 145.667 49.9402C145.667 48.6895 145.564 47.6955 145.359 46.9582C145.163 46.2115 144.869 45.6795 144.477 45.3622C144.085 45.0355 143.604 44.8722 143.035 44.8722ZM153.384 57.3462V54.7842H155.47V45.0682H153.384V42.5202H158.284L158.97 45.9222C159.511 44.6622 160.192 43.7149 161.014 43.0802C161.835 42.4362 162.866 42.1142 164.108 42.1142C164.584 42.1142 165.004 42.1515 165.368 42.2262C165.741 42.3009 166.096 42.3989 166.432 42.5202L165.326 45.6282C165.036 45.5535 164.761 45.4975 164.5 45.4602C164.238 45.4135 163.944 45.3902 163.618 45.3902C162.591 45.3902 161.695 45.7915 160.93 46.5942C160.174 47.3875 159.586 48.4655 159.166 49.8282V54.7842H162.12V57.3462H153.384ZM163.31 48.3022V44.3682L163.814 42.5202H166.432L165.774 48.3022H163.31ZM176.193 42.1002C177.667 42.1002 178.918 42.4222 179.945 43.0662C180.971 43.7102 181.751 44.6202 182.283 45.7962C182.824 46.9629 183.095 48.3302 183.095 49.8982C183.095 51.5035 182.824 52.8942 182.283 54.0702C181.741 55.2462 180.957 56.1562 179.931 56.8002C178.904 57.4442 177.653 57.7662 176.179 57.7662C174.713 57.7662 173.463 57.4535 172.427 56.8282C171.4 56.1935 170.616 55.2929 170.075 54.1262C169.533 52.9502 169.263 51.5502 169.263 49.9262C169.263 48.3769 169.533 47.0142 170.075 45.8382C170.616 44.6622 171.405 43.7475 172.441 43.0942C173.477 42.4315 174.727 42.1002 176.193 42.1002ZM176.193 44.8862C175.157 44.8862 174.382 45.2922 173.869 46.1042C173.365 46.9162 173.113 48.1902 173.113 49.9262C173.113 51.6809 173.365 52.9642 173.869 53.7762C174.373 54.5789 175.143 54.9802 176.179 54.9802C177.215 54.9802 177.985 54.5789 178.489 53.7762C178.993 52.9642 179.245 51.6715 179.245 49.8982C179.245 48.1715 178.993 46.9069 178.489 46.1042C177.985 45.2922 177.219 44.8862 176.193 44.8862ZM197.532 42.5202V53.7202C197.532 55.6895 197.14 57.3182 196.356 58.6062C195.581 59.8942 194.438 60.9209 192.926 61.6862C191.414 62.4515 189.561 63.0395 187.368 63.4502L186.766 60.6222C188.259 60.3142 189.528 59.9082 190.574 59.4042C191.628 58.9002 192.436 58.2142 192.996 57.3462C193.556 56.4782 193.836 55.3489 193.836 53.9582V45.1382H188.208V42.5202H197.532ZM194.9 35.0442C195.572 35.0442 196.122 35.2542 196.552 35.6742C196.981 36.0942 197.196 36.6169 197.196 37.2422C197.196 37.8675 196.981 38.3949 196.552 38.8242C196.122 39.2442 195.572 39.4542 194.9 39.4542C194.218 39.4542 193.663 39.2442 193.234 38.8242C192.804 38.3949 192.59 37.8675 192.59 37.2422C192.59 36.6169 192.804 36.0942 193.234 35.6742C193.663 35.2542 194.218 35.0442 194.9 35.0442ZM206.761 51.0602C206.835 51.9842 207.045 52.7355 207.391 53.3142C207.745 53.8929 208.198 54.3175 208.749 54.5882C209.299 54.8589 209.911 54.9942 210.583 54.9942C211.292 54.9942 211.959 54.8822 212.585 54.6582C213.21 54.4342 213.826 54.1215 214.433 53.7202L215.973 55.8342C215.282 56.4129 214.456 56.8795 213.495 57.2342C212.543 57.5889 211.493 57.7662 210.345 57.7662C208.739 57.7662 207.386 57.4349 206.285 56.7722C205.193 56.1095 204.367 55.1902 203.807 54.0142C203.247 52.8382 202.967 51.4849 202.967 49.9542C202.967 48.4795 203.242 47.1495 203.793 45.9642C204.343 44.7789 205.137 43.8409 206.173 43.1502C207.209 42.4502 208.459 42.1002 209.925 42.1002C211.287 42.1002 212.463 42.3989 213.453 42.9962C214.442 43.5935 215.207 44.4522 215.749 45.5722C216.29 46.6829 216.561 48.0222 216.561 49.5902C216.561 49.8422 216.551 50.0989 216.533 50.3602C216.523 50.6215 216.509 50.8549 216.491 51.0602H206.761ZM209.939 44.7042C209.043 44.7042 208.305 45.0262 207.727 45.6702C207.157 46.3049 206.821 47.3129 206.719 48.6942H212.963C212.944 47.4435 212.683 46.4682 212.179 45.7682C211.684 45.0589 210.937 44.7042 209.939 44.7042ZM227.862 54.7982C228.515 54.7982 229.127 54.6769 229.696 54.4342C230.275 54.1915 230.83 53.8835 231.362 53.5102L233.042 55.8762C232.389 56.4269 231.6 56.8795 230.676 57.2342C229.752 57.5889 228.763 57.7662 227.708 57.7662C226.159 57.7662 224.829 57.4442 223.718 56.8002C222.617 56.1469 221.767 55.2415 221.17 54.0842C220.582 52.9175 220.288 51.5642 220.288 50.0242C220.288 48.5029 220.587 47.1449 221.184 45.9502C221.791 44.7462 222.649 43.8035 223.76 43.1222C224.88 42.4409 226.215 42.1002 227.764 42.1002C228.828 42.1002 229.789 42.2542 230.648 42.5622C231.516 42.8609 232.309 43.3089 233.028 43.9062L231.39 46.1742C230.839 45.7915 230.27 45.5022 229.682 45.3062C229.103 45.1009 228.501 44.9982 227.876 44.9982C226.784 44.9982 225.893 45.3949 225.202 46.1882C224.521 46.9722 224.18 48.2509 224.18 50.0242C224.18 51.1909 224.339 52.1242 224.656 52.8242C224.983 53.5242 225.421 54.0282 225.972 54.3362C226.532 54.6442 227.162 54.7982 227.862 54.7982ZM249.985 56.5202C249.434 56.8842 248.767 57.1829 247.983 57.4162C247.199 57.6495 246.35 57.7662 245.435 57.7662C243.624 57.7662 242.262 57.2995 241.347 56.3662C240.432 55.4235 239.975 54.1729 239.975 52.6142V45.1382H236.755V42.5202H239.975V39.2582L243.671 38.8102V42.5202H248.571L248.193 45.1382H243.671V52.6002C243.671 53.3655 243.858 53.9255 244.231 54.2802C244.604 54.6349 245.206 54.8122 246.037 54.8122C246.569 54.8122 247.054 54.7515 247.493 54.6302C247.941 54.4995 248.347 54.3362 248.711 54.1402L249.985 56.5202ZM259.62 55.0362C260.488 55.0362 261.183 54.8869 261.706 54.5882C262.238 54.2802 262.504 53.8509 262.504 53.3002C262.504 52.9362 262.415 52.6282 262.238 52.3762C262.07 52.1242 261.734 51.8909 261.23 51.6762C260.726 51.4522 259.97 51.2049 258.962 50.9342C258.01 50.6915 257.175 50.3929 256.456 50.0382C255.747 49.6742 255.191 49.2075 254.79 48.6382C254.398 48.0689 254.202 47.3502 254.202 46.4822C254.202 45.6142 254.445 44.8535 254.93 44.2002C255.415 43.5375 256.115 43.0242 257.03 42.6602C257.954 42.2869 259.065 42.1002 260.362 42.1002C261.631 42.1002 262.742 42.2682 263.694 42.6042C264.646 42.9309 265.463 43.3415 266.144 43.8362L264.632 46.0902C264.035 45.7075 263.386 45.3995 262.686 45.1662C261.995 44.9235 261.249 44.8022 260.446 44.8022C259.578 44.8022 258.943 44.9282 258.542 45.1802C258.15 45.4322 257.954 45.7822 257.954 46.2302C257.954 46.5475 258.052 46.8182 258.248 47.0422C258.453 47.2569 258.817 47.4669 259.34 47.6722C259.872 47.8682 260.628 48.1062 261.608 48.3862C262.569 48.6475 263.405 48.9555 264.114 49.3102C264.833 49.6649 265.388 50.1362 265.78 50.7242C266.172 51.3122 266.368 52.0822 266.368 53.0342C266.368 54.1075 266.055 54.9942 265.43 55.6942C264.805 56.3942 263.979 56.9169 262.952 57.2622C261.935 57.5982 260.829 57.7662 259.634 57.7662C258.234 57.7662 257.011 57.5655 255.966 57.1642C254.921 56.7629 254.034 56.2449 253.306 55.6102L255.224 53.4542C255.803 53.9115 256.461 54.2895 257.198 54.5882C257.945 54.8869 258.752 55.0362 259.62 55.0362ZM274.015 54.8682C274.015 54.3455 274.141 53.8649 274.393 53.4262C274.654 52.9875 275.004 52.6375 275.443 52.3762C275.882 52.1149 276.367 51.9842 276.899 51.9842C277.44 51.9842 277.93 52.1149 278.369 52.3762C278.808 52.6375 279.153 52.9875 279.405 53.4262C279.666 53.8649 279.797 54.3455 279.797 54.8682C279.797 55.3909 279.666 55.8762 279.405 56.3242C279.153 56.7629 278.808 57.1129 278.369 57.3742C277.93 57.6355 277.44 57.7662 276.899 57.7662C276.367 57.7662 275.882 57.6355 275.443 57.3742C275.004 57.1129 274.654 56.7629 274.393 56.3242C274.141 55.8762 274.015 55.3909 274.015 54.8682Z" fill="#95F450"/>
<rect x="1.80273" y="1.1875" width="342.547" height="93.6809" rx="19" stroke="#95F450" stroke-width="2"/>
<path fill-rule="evenodd" clip-rule="evenodd" d="M43.4146 42.8677L37.353 61.9902L34.931 61.2452L41.553 40.3677H67.8459V32.8677H48.4388L44.3581 27.8677H29.8027V64.1177C29.8027 66.1852 31.5096 67.8677 33.6071 67.8677H66.6108C68.4165 67.8677 69.9865 66.6002 70.3415 64.8527L74.8027 42.8677H43.4146Z" fill="#95F450"/>
</svg>
