<svg viewBox="0 0 89 89" fill="none" xmlns="http://www.w3.org/2000/svg">
<rect x="1" y="1" width="87" height="87" rx="19" stroke="white" stroke-width="2"/>
<path d="M35.6006 74.1665C20.7673 78.6165 20.7673 66.7498 14.834 65.2665M56.3673 83.0665V71.5855C56.4786 70.1709 56.2875 68.7488 55.8067 67.4137C55.3258 66.0787 54.5663 64.8613 53.5786 63.8425C62.894 62.8042 72.684 59.2738 72.684 43.0758C72.6832 38.9339 71.09 34.9507 68.234 31.9508C69.5864 28.3271 69.4907 24.3216 67.967 20.7665C67.967 20.7665 64.4663 19.7282 56.3673 25.1572C49.5677 23.3143 42.4002 23.3143 35.6006 25.1572C27.5017 19.7282 24.001 20.7665 24.001 20.7665C22.4772 24.3216 22.3816 28.3271 23.734 31.9508C20.8567 34.973 19.2618 38.9921 19.284 43.1648C19.284 59.2442 29.074 62.7745 38.3893 63.9315C37.4133 64.9401 36.6605 66.1429 36.1801 67.4616C35.6996 68.7803 35.5022 70.1854 35.6006 71.5855V83.0665" stroke="white" stroke-width="4" stroke-linecap="round" stroke-linejoin="round"/>
</svg>
