<svg width="89" height="89" viewBox="0 0 89 89" fill="none" xmlns="http://www.w3.org/2000/svg">
<rect x="1" y="1" width="87" height="87" rx="19" stroke="white" stroke-width="2"/>
<path d="M56.3673 32.633C61.0882 32.633 65.6157 34.5084 68.9538 37.8465C72.292 41.1847 74.1673 45.7122 74.1673 50.433V71.1997H62.3007V50.433C62.3007 48.8594 61.6755 47.3502 60.5628 46.2375C59.4501 45.1248 57.9409 44.4997 56.3673 44.4997C54.7937 44.4997 53.2845 45.1248 52.1718 46.2375C51.0591 47.3502 50.434 48.8594 50.434 50.433V71.1997H38.5673V50.433C38.5673 45.7122 40.4427 41.1847 43.7808 37.8465C47.119 34.5084 51.6465 32.633 56.3673 32.633Z" stroke="white" stroke-width="4" stroke-linecap="round" stroke-linejoin="round"/>
<path d="M26.7007 35.5997H14.834V71.1997H26.7007V35.5997Z" stroke="white" stroke-width="4" stroke-linecap="round" stroke-linejoin="round"/>
<path d="M20.7673 26.6997C24.0442 26.6997 26.7007 24.0432 26.7007 20.7663C26.7007 17.4895 24.0442 14.833 20.7673 14.833C17.4904 14.833 14.834 17.4895 14.834 20.7663C14.834 24.0432 17.4904 26.6997 20.7673 26.6997Z" stroke="white" stroke-width="4" stroke-linecap="round" stroke-linejoin="round"/>
</svg>
